<?xml version="1.0" standalone="no"?>
<!DOCTYPE svg PUBLIC "-//W3C//DTD SVG 20010904//EN"
 "http://www.w3.org/TR/2001/REC-SVG-20010904/DTD/svg10.dtd">
<svg version="1.0" xmlns="http://www.w3.org/2000/svg"
 width="500.000000pt" height="500.000000pt" viewBox="0 0 500.000000 500.000000"
 preserveAspectRatio="xMidYMid meet">
<metadata>
Created by potrace 1.15, written by Peter Selinger 2001-2017
</metadata>
<g transform="translate(0.000000,500.000000) scale(0.100000,-0.100000)"
fill="#000000" stroke="none">
<path d="M0 2500 l0 -2500 2500 0 2500 0 0 2500 0 2500 -2500 0 -2500 0 0
-2500z m4410 0 l0 -1910 -1910 0 -1910 0 0 1910 0 1910 1910 0 1910 0 0 -1910z"/>
<path d="M702 2498 l3 -1793 1798 -3 1797 -2 0 1795 0 1795 -1800 0 -1800 0 2
-1792z m568 63 c0 -65 -7 -81 -36 -81 -20 0 -25 6 -30 40 -6 39 -8 40 -45 40
l-39 0 0 -160 0 -159 33 -9 c17 -4 32 -15 32 -23 0 -11 -21 -14 -109 -14 -115
0 -143 11 -86 35 l30 12 0 159 0 159 -34 0 c-36 0 -46 -12 -46 -56 0 -20 -5
-24 -30 -24 l-30 0 0 65 0 65 195 0 195 0 0 -49z m206 -74 c26 -22 27 -29 32
-131 4 -92 7 -106 21 -104 9 2 21 -2 26 -10 6 -7 18 -10 28 -6 15 5 17 21 17
110 0 103 0 104 -26 110 -39 10 -26 37 24 48 47 10 92 -4 92 -28 0 -12 10 -9
43 9 53 31 78 31 115 0 l30 -25 43 25 c54 30 78 31 113 4 25 -20 26 -24 26
-128 0 -105 1 -108 25 -119 14 -6 25 -18 25 -27 0 -12 -16 -15 -85 -15 -66 0
-85 3 -85 14 0 8 7 16 15 20 12 4 15 24 15 90 0 100 -5 116 -35 116 -52 0 -55
-6 -55 -100 0 -79 2 -89 22 -102 38 -25 13 -38 -73 -38 -76 0 -97 9 -64 28 13
7 15 26 13 107 -3 108 -8 115 -64 101 -23 -6 -24 -10 -24 -96 0 -79 2 -91 20
-100 11 -6 20 -17 20 -25 0 -12 -18 -15 -89 -15 -58 0 -91 4 -93 11 -3 8 -14
7 -35 -5 -41 -21 -49 -20 -73 4 -20 20 -20 20 -52 0 -47 -28 -84 -26 -119 9
-34 35 -36 59 -8 95 18 23 27 26 85 26 l64 0 0 41 c0 53 -15 79 -45 79 -19 0
-26 -7 -31 -27 -3 -16 -7 -34 -10 -40 -5 -19 -51 -16 -58 3 -9 22 -7 84 2 84
4 1 30 7 57 15 76 21 120 19 151 -8z m965 6 c7 -7 9 -25 5 -47 -6 -29 -11 -36
-31 -36 -16 0 -28 9 -37 28 -18 37 -63 39 -63 2 0 -20 11 -31 50 -52 97 -52
117 -103 66 -160 -27 -31 -34 -33 -93 -33 -35 0 -77 6 -95 13 -29 13 -31 16
-20 40 18 44 22 45 75 18 63 -32 72 -32 72 -2 0 20 -12 31 -62 58 -101 53
-115 114 -38 166 30 20 44 23 97 20 35 -2 68 -9 74 -15z m750 -443 c18 -10 19
-23 19 -206 0 -187 1 -196 20 -201 11 -3 20 -14 20 -24 0 -17 -9 -19 -90 -19
-74 0 -90 3 -90 15 0 13 -6 12 -40 -5 -49 -25 -55 -25 -80 0 -20 20 -20 20
-52 0 -47 -28 -84 -26 -119 9 -34 35 -36 59 -8 95 18 23 27 26 85 26 l64 0 0
41 c0 53 -15 79 -45 79 -19 0 -26 -7 -31 -27 -10 -49 -13 -53 -38 -53 -27 0
-36 16 -36 64 0 30 4 34 42 45 23 7 64 15 93 18 44 5 55 2 80 -19 27 -24 28
-29 33 -132 4 -92 7 -106 21 -104 9 2 21 -3 27 -10 7 -9 18 -12 32 -8 22 7 22
11 22 186 l0 178 -26 6 c-17 5 -24 12 -22 23 5 28 82 42 119 23z m-2181 -160
l21 -21 26 21 c62 49 162 -9 163 -95 l1 -30 15 35 c29 66 86 110 144 110 91 0
163 -97 113 -152 -13 -14 -31 -18 -95 -18 -68 0 -78 -2 -78 -17 1 -59 84 -88
164 -57 11 4 16 0 16 -13 0 -24 -77 -63 -123 -63 -69 0 -146 67 -148 129 l-1
26 -8 -27 c-21 -72 -84 -118 -159 -118 -40 0 -41 -1 -41 -35 0 -25 5 -38 18
-42 29 -10 41 -24 35 -39 -7 -20 -178 -20 -186 0 -3 8 5 18 19 25 l24 11 -2
167 c-3 167 -3 168 -26 171 -31 5 -25 34 8 43 47 13 80 9 100 -11z m621 10
c11 -7 19 -21 19 -38 l1 -27 30 38 c33 39 70 49 101 25 14 -11 15 -21 6 -70
-9 -55 -12 -58 -39 -58 -24 0 -29 4 -29 24 0 36 -18 41 -46 15 -21 -19 -24
-32 -24 -89 0 -67 0 -67 32 -76 18 -6 34 -17 36 -27 3 -15 -8 -17 -102 -17
-107 0 -131 9 -81 32 24 11 25 14 25 114 0 103 0 104 -26 110 -16 4 -24 12
-22 22 5 27 83 41 119 22z m390 -7 c7 -7 9 -25 5 -47 -6 -29 -11 -36 -31 -36
-16 0 -28 9 -37 28 -18 37 -63 39 -63 2 0 -20 11 -31 50 -52 97 -52 117 -103
66 -160 -27 -31 -34 -33 -93 -33 -35 0 -77 6 -95 13 -29 13 -31 16 -20 40 18
44 22 45 75 18 63 -32 72 -32 72 -2 0 20 -12 31 -62 58 -101 53 -115 114 -38
166 30 20 44 23 97 20 35 -2 68 -9 74 -15z m270 -6 c44 -29 69 -80 69 -140 0
-92 -50 -149 -138 -155 -47 -3 -63 0 -91 20 -52 35 -73 82 -68 151 2 37 10 67
23 85 46 62 143 81 205 39z m200 13 c10 -6 19 -17 19 -26 0 -11 10 -9 47 11
60 31 87 32 118 0 23 -23 25 -31 25 -130 0 -98 2 -107 20 -112 11 -3 20 -14
20 -24 0 -17 -8 -19 -85 -19 -84 0 -104 9 -65 30 17 9 20 21 20 91 0 89 -10
119 -41 119 -51 0 -59 -15 -59 -105 0 -74 2 -86 20 -95 11 -6 20 -17 20 -25 0
-12 -18 -15 -90 -15 -92 0 -113 10 -65 32 24 11 25 14 25 114 0 103 0 104 -26
110 -16 4 -24 12 -22 22 5 27 83 41 119 22z m-760 -450 c16 -9 19 -22 19 -95
0 -47 3 -85 8 -85 4 0 18 9 32 20 115 90 228 -121 127 -237 -52 -60 -128 -78
-219 -52 l-38 10 0 194 0 195 -26 6 c-16 4 -24 12 -22 22 5 27 83 41 119 22z
m813 -92 c3 -13 6 -33 6 -45 0 -20 5 -23 45 -23 28 0 45 -4 45 -12 0 -22 -33
-48 -62 -48 l-28 0 0 -72 c0 -89 8 -103 49 -95 50 10 41 -24 -14 -51 -56 -27
-66 -27 -99 -1 -25 20 -26 24 -26 120 0 90 -2 99 -19 99 -32 0 -33 28 -1 50
17 12 34 37 41 61 10 30 17 39 34 39 15 0 25 -8 29 -22z m-990 -63 c57 -27 83
-99 49 -137 -13 -14 -31 -18 -95 -18 -68 0 -78 -2 -78 -17 1 -59 84 -88 164
-57 11 4 16 0 16 -13 0 -24 -77 -63 -123 -63 -82 0 -147 68 -147 155 0 117
114 197 214 150z m637 -2 c7 -7 9 -25 5 -47 -6 -29 -11 -36 -31 -36 -16 0 -28
9 -37 28 -18 37 -63 39 -63 2 0 -20 11 -31 50 -52 97 -52 117 -103 66 -160
-27 -31 -34 -33 -93 -33 -35 0 -77 6 -95 13 -29 13 -31 16 -20 40 18 44 22 45
75 18 63 -32 72 -32 72 -2 0 20 -12 31 -62 58 -101 53 -115 114 -38 166 30 20
44 23 97 20 35 -2 68 -9 74 -15z m162 3 c14 -11 17 -31 17 -131 0 -108 1 -117
20 -122 11 -3 20 -14 20 -24 0 -17 -9 -19 -90 -19 -70 0 -90 3 -90 14 0 8 11
17 25 20 25 6 25 8 25 110 0 101 -1 105 -22 108 -32 4 -30 40 2 49 40 11 74 9
93 -5z m511 -1 c57 -27 83 -99 49 -137 -13 -14 -31 -18 -95 -18 -68 0 -78 -2
-78 -17 1 -59 84 -88 164 -57 11 4 16 0 16 -13 0 -24 -77 -63 -123 -63 -82 0
-147 68 -147 155 0 117 114 197 214 150z m-1844 -10 c0 -7 -7 -18 -16 -23 -17
-9 -15 -15 33 -172 3 -9 14 8 26 38 20 52 20 56 4 100 -10 26 -17 50 -17 55 0
4 20 7 44 7 l43 0 26 -72 c14 -40 30 -89 35 -108 8 -34 9 -32 21 40 7 41 14
81 17 88 2 8 -5 16 -16 19 -11 3 -20 14 -20 24 0 17 8 19 80 19 63 0 80 -3 80
-15 0 -7 -8 -18 -17 -24 -10 -5 -34 -59 -59 -133 l-41 -123 -48 0 -48 0 -17
49 -16 49 -25 -49 c-23 -47 -26 -49 -69 -52 l-45 -3 -39 118 c-21 65 -42 122
-47 128 -5 5 -9 19 -9 32 0 22 4 23 70 23 54 0 70 -3 70 -15z"/>
<path d="M1027 1833 c-4 -3 -7 -43 -7 -89 l0 -82 32 -7 c26 -6 35 -3 50 15 27
33 28 108 2 148 -14 21 -62 31 -77 15z"/>
<path d="M2176 1845 c-40 -40 -26 -176 20 -197 34 -16 56 -1 67 46 24 100 -35
202 -87 151z"/>
<path d="M1763 1233 c-9 -3 -13 -32 -13 -93 0 -82 1 -88 23 -94 38 -10 47 -7
67 27 51 83 -1 191 -77 160z"/>
</g>
</svg>
