<?xml version="1.0" standalone="no"?>
<!DOCTYPE svg PUBLIC "-//W3C//DTD SVG 20010904//EN"
 "http://www.w3.org/TR/2001/REC-SVG-20010904/DTD/svg10.dtd">
<svg version="1.0" xmlns="http://www.w3.org/2000/svg"
 width="1287.000000pt" height="1210.000000pt" viewBox="0 0 1287.000000 1210.000000"
 preserveAspectRatio="xMidYMid meet">
<metadata>
Created by potrace 1.15, written by Peter Selinger 2001-2017
</metadata>
<g transform="translate(0.000000,1210.000000) scale(0.100000,-0.100000)"
fill="#000000" stroke="none">
<path d="M150 12086 c0 -8 -3 -22 -7 -32 -5 -13 -3 -15 7 -9 9 5 11 4 6 -4 -4
-7 -10 -38 -12 -69 -3 -31 -9 -72 -14 -90 -5 -21 -5 -44 1 -59 6 -18 5 -38 -7
-71 -22 -66 -28 -207 -8 -222 15 -13 19 -40 7 -40 -5 0 -8 -10 -9 -22 0 -13
-4 -57 -9 -98 -4 -41 -9 -98 -10 -127 -2 -28 -6 -61 -10 -73 -6 -20 -4 -21 52
-18 l58 3 0 50 c0 28 6 56 13 64 8 8 9 18 4 25 -10 13 -9 57 2 74 4 7 3 19 -3
26 -6 7 -9 15 -7 17 2 2 6 16 10 32 5 21 3 27 -11 27 -14 0 -13 4 7 25 13 14
19 25 14 25 -6 0 -9 21 -7 48 1 26 3 84 4 129 0 46 5 85 10 89 6 3 7 19 4 35
-4 16 -3 34 2 41 4 7 9 40 10 73 1 33 4 84 7 113 l4 52 -54 0 c-40 0 -54 -4
-54 -14z"/>
<path d="M1419 11922 c-3 -362 -4 -432 -9 -432 -3 0 -6 -53 -7 -117 l-1 -118
-36 -38 c-32 -34 -36 -44 -36 -92 0 -29 -4 -87 -10 -127 -5 -40 -12 -167 -15
-283 -2 -115 -8 -242 -12 -281 -5 -40 -4 -134 2 -210 9 -131 11 -139 31 -140
49 -3 62 -46 19 -66 -14 -6 -25 -18 -25 -26 0 -9 -3 -12 -6 -9 -10 10 -83 -34
-89 -54 -10 -30 -102 -116 -150 -139 l-45 -22 -107 22 c-110 22 -166 22 -284
-2 l-56 -11 20 -38 c11 -21 23 -38 26 -37 18 2 21 -4 11 -21 -12 -23 -3 -51
16 -51 11 0 13 -15 10 -72 -4 -79 1 -100 42 -168 27 -45 27 -47 29 -250 0
-113 2 -207 3 -210 1 -3 1 -9 0 -15 -6 -30 7 -721 15 -745 4 -11 2 -20 -4 -20
-6 0 -9 -13 -8 -30 1 -16 5 -30 9 -30 4 0 3 -12 -2 -26 -12 -31 -13 -74 -2
-74 5 0 17 8 26 19 14 16 15 22 4 46 -9 19 -9 30 -2 32 6 2 9 27 8 61 -2 31 1
71 5 87 4 17 4 43 0 59 -5 17 -4 37 2 48 6 10 13 65 15 121 3 56 10 107 16
114 6 7 6 13 1 13 -14 0 -1 196 17 261 7 22 6 37 -1 46 -7 8 -7 13 -2 13 6 0
10 12 11 28 1 42 10 103 16 109 3 4 1 12 -5 19 -7 9 -7 19 0 33 6 11 12 54 14
95 1 41 5 72 9 70 4 -3 6 10 4 28 -3 21 2 40 11 51 15 16 14 17 -3 17 -16 1
-15 4 9 23 15 13 27 28 27 34 0 7 9 18 20 26 18 13 19 16 5 27 -10 8 -15 31
-15 69 0 50 3 59 30 83 16 14 32 23 36 19 4 -3 4 2 1 11 -5 16 3 17 96 12 183
-8 232 -13 235 -23 2 -6 10 -11 17 -11 8 0 17 -9 20 -20 4 -13 15 -20 31 -20
13 0 24 -6 24 -12 0 -9 3 -10 8 -2 4 6 25 17 47 23 22 7 47 15 55 18 33 13 84
1 110 -25 14 -15 34 -32 45 -38 17 -10 18 -15 8 -30 -6 -11 -16 -18 -21 -17
-5 1 -12 -7 -15 -17 -3 -11 -1 -20 4 -20 5 0 9 -8 9 -17 0 -13 -3 -14 -11 -6
-6 6 -26 9 -45 6 -19 -3 -34 -1 -34 4 0 12 -83 11 -91 -1 -4 -4 -10 -3 -13 3
-4 6 0 14 9 17 14 6 13 9 -6 22 -18 12 -23 13 -30 1 -7 -12 -9 -12 -9 0 0 9
-7 11 -21 8 -12 -3 -32 -2 -45 3 -14 6 -26 6 -29 -1 -4 -5 -10 -7 -15 -4 -5 3
-7 -4 -5 -15 3 -15 -2 -20 -18 -21 -12 -1 -34 -2 -50 -3 -15 -1 -69 1 -120 4
-50 4 -96 3 -102 0 -5 -4 -23 -5 -40 -4 -16 2 -25 0 -19 -4 7 -4 13 -16 15
-26 2 -11 18 -27 34 -36 17 -10 29 -22 28 -28 -2 -6 6 -14 17 -17 23 -7 26
-21 8 -28 -8 -4 -7 -6 3 -6 20 -1 31 -25 22 -47 -5 -14 -3 -15 15 -5 27 15 32
14 32 -4 0 -9 16 -31 36 -50 20 -19 31 -35 25 -35 -17 0 11 -39 32 -46 13 -4
17 -12 14 -25 -3 -10 -1 -22 4 -25 5 -3 7 -10 4 -15 -4 -5 -2 -9 3 -9 4 0 8
-19 8 -42 0 -52 13 -471 15 -478 1 -3 1 -8 1 -11 -2 -12 -3 -324 -2 -334 2
-13 -1 -140 -4 -183 -2 -18 0 -35 4 -37 3 -2 3 -32 0 -67 -4 -35 -4 -83 -1
-108 5 -39 10 -45 36 -51 132 -32 458 -50 486 -27 14 11 18 50 24 273 9 305 9
305 1 312 -3 3 -11 1 -18 -4 -14 -11 -13 -11 -106 -14 -67 -2 -94 10 -74 33 5
7 11 18 11 23 0 6 29 11 63 13 53 3 65 0 79 -17 11 -13 24 -18 37 -14 31 8 40
71 47 328 3 121 10 294 15 385 6 91 10 186 10 212 0 35 6 54 25 77 14 16 31
28 38 26 7 -2 34 -6 60 -9 27 -3 55 -10 62 -16 41 -34 57 -206 50 -534 -6
-255 -1 -316 27 -316 14 0 137 61 143 70 3 5 22 14 43 21 46 14 102 55 102 74
0 7 -9 16 -19 20 -21 6 -29 21 -45 80 -21 77 23 174 79 175 63 0 80 -22 91
-119 6 -57 8 -61 33 -62 14 -1 30 -1 35 0 5 1 12 -2 15 -8 3 -5 6 73 6 172 0
100 2 246 4 324 4 119 2 145 -11 160 -8 10 -17 25 -20 33 -5 16 -142 42 -156
28 -13 -13 -132 71 -132 93 0 10 5 19 10 19 6 0 10 -4 10 -10 0 -11 33 -14 43
-4 3 3 1 14 -6 25 -16 25 -10 28 51 22 34 -4 49 -9 41 -14 -10 -6 -7 -10 11
-17 20 -7 26 -6 32 7 4 9 7 10 7 4 1 -7 6 -13 12 -13 5 0 7 6 3 13 -6 10 -4
10 7 0 16 -15 49 -17 49 -3 0 6 6 10 14 10 29 0 41 34 49 134 13 164 16 185
31 209 7 12 21 69 30 127 10 58 26 125 37 149 10 24 19 47 19 52 0 7 -58 -8
-70 -18 -3 -3 -5 -32 -6 -66 0 -34 -4 -99 -8 -145 l-8 -82 -89 -90 c-49 -49
-101 -93 -115 -96 -14 -4 -50 -4 -80 0 -30 3 -79 9 -109 12 -31 4 -86 1 -128
-6 -66 -12 -76 -17 -95 -47 -28 -42 -28 -47 6 -72 l27 -20 -43 -1 c-23 0 -60
9 -81 20 -33 16 -40 26 -46 59 -3 21 -13 47 -20 58 -8 10 -15 26 -15 35 0 18
-38 50 -51 42 -17 -10 -77 -12 -116 -3 -50 11 -131 60 -126 76 2 6 -32 40 -76
75 -44 34 -80 66 -81 70 0 4 7 14 16 23 9 9 20 30 25 48 4 18 12 49 17 70 19
72 63 147 124 207 71 71 112 94 214 120 42 11 87 29 101 40 23 18 37 20 94 16
47 -3 69 -1 72 7 2 8 23 11 60 9 54 -3 190 -5 240 -3 12 0 69 -1 127 -2 87 -2
113 1 152 18 27 11 48 25 48 31 0 6 7 17 15 24 12 10 15 7 21 -14 3 -14 10
-26 14 -26 5 0 12 -9 15 -20 6 -19 12 -20 65 -14 57 6 60 6 89 -26 34 -38 43
-70 24 -96 -19 -26 -16 -36 7 -24 11 6 18 15 15 21 -4 5 -2 9 4 9 5 0 11 14
13 32 4 46 72 94 111 79 17 -7 36 -7 50 -2 13 5 30 6 37 1 7 -4 24 -3 37 3 16
7 30 7 47 -1 29 -13 97 -4 111 14 6 7 22 16 37 19 23 6 29 3 37 -18 11 -29 59
-40 87 -20 24 18 44 16 60 -4 12 -17 14 -17 27 1 11 14 21 18 44 13 17 -3 35
-1 41 5 7 7 22 6 49 -2 66 -22 65 -21 78 -191 4 -64 3 -78 -12 -91 -41 -36
-67 -41 -189 -39 -135 2 -133 4 -104 -70 28 -71 12 -68 308 -63 147 3 302 6
345 8 42 2 77 0 77 -3 0 -26 -71 -76 -147 -102 -45 -16 -80 -20 -158 -18 -55
1 -159 1 -232 -1 -153 -2 -153 -2 -177 -97 -27 -105 -100 -214 -174 -261 -42
-27 -91 -26 -207 3 -60 15 -79 16 -157 5 -48 -7 -88 -16 -88 -20 0 -4 -9 -10
-20 -13 -20 -5 -20 -5 1 -42 12 -20 31 -41 43 -45 12 -5 15 -9 7 -9 -10 -1
-12 -12 -7 -43 3 -24 7 -79 8 -123 2 -56 10 -93 25 -125 20 -42 21 -61 22
-270 1 -301 1 -289 -5 -335 -2 -22 -6 -76 -9 -120 -2 -44 -10 -106 -18 -138
-12 -49 -12 -57 -1 -53 14 5 19 -6 8 -17 -4 -3 -8 -24 -9 -47 -2 -23 -8 -47
-14 -54 -7 -9 -7 -16 1 -24 9 -9 9 -15 1 -23 -6 -6 -9 -18 -6 -26 3 -8 0 -26
-8 -39 -10 -20 -11 -29 -1 -45 7 -10 8 -19 3 -19 -5 0 -12 7 -15 16 -4 9 -9
14 -12 11 -3 -3 0 -16 7 -29 7 -12 14 -34 16 -48 1 -14 4 -40 6 -58 2 -18 0
-35 -5 -38 -14 -9 -8 -24 10 -24 10 0 13 -3 6 -8 -19 -13 -23 -60 -5 -67 14
-6 13 -8 -4 -18 -19 -11 -18 -12 10 -18 17 -4 66 -7 109 -8 105 -1 143 -15
152 -55 10 -45 7 -147 -5 -159 -5 -5 -45 -9 -88 -8 -434 11 -456 10 -502 -11
-52 -24 -206 -32 -219 -11 -8 12 -24 12 -53 -1 -13 -6 -124 -2 -124 4 0 3 -34
7 -95 13 -33 2 -36 0 -48 -38 -16 -51 -28 -290 -15 -298 5 -3 263 -9 573 -13
l564 -7 28 -29 c26 -27 28 -34 28 -114 0 -82 -1 -87 -31 -116 -16 -17 -40 -32
-52 -33 -12 -1 -28 -3 -34 -4 -18 -2 -16 -31 1 -31 8 0 16 8 18 18 2 9 7 -18
11 -60 5 -51 4 -85 -3 -98 -7 -13 -7 -20 0 -20 5 0 10 -7 10 -15 0 -8 -7 -15
-15 -15 -8 0 -15 -5 -15 -11 0 -5 4 -8 9 -4 15 9 17 -47 3 -89 -7 -22 -12 -69
-11 -105 2 -59 0 -66 -17 -67 -10 -1 -35 -4 -54 -8 -39 -7 -436 -7 -490 -1
-35 5 -283 15 -353 15 -23 0 -36 4 -32 10 3 6 1 10 -4 10 -6 0 -11 9 -11 20 0
11 5 20 10 20 6 0 10 9 10 19 0 11 4 22 9 25 9 6 3 56 -8 56 -6 0 -7 53 -2 75
3 12 2 49 -4 135 -6 84 0 110 26 110 11 0 17 5 14 10 -3 6 -17 7 -31 4 -14 -4
-31 -1 -39 6 -8 7 -15 10 -15 7 0 -3 -13 -2 -29 3 -20 6 -35 4 -49 -6 -18 -12
-20 -31 -26 -246 -4 -128 -11 -260 -16 -293 -5 -33 -6 -124 -2 -203 4 -79 4
-151 1 -160 -3 -9 -9 -34 -12 -54 -5 -33 -3 -38 16 -42 30 -7 271 -15 647 -22
406 -8 637 -18 647 -27 4 -5 8 -34 8 -65 l0 -57 -164 3 c-90 2 -167 5 -170 7
-4 2 -157 6 -341 9 -184 4 -402 9 -484 12 -168 6 -166 7 -166 -67 0 -66 10
-109 26 -109 8 0 14 -5 14 -11 0 -6 7 -9 15 -5 8 3 15 1 15 -4 0 -17 32 -11
46 8 13 16 15 16 29 -2 8 -10 21 -16 29 -13 9 4 15 3 15 -1 -1 -4 2 -16 6 -28
5 -16 13 -20 33 -16 15 3 32 9 39 14 7 5 14 5 18 -2 3 -5 15 -10 26 -10 24 0
34 -22 20 -48 -9 -18 -6 -20 37 -25 26 -3 54 -8 63 -12 10 -4 29 7 53 28 l36
34 73 -14 c39 -8 87 -14 105 -15 18 0 36 -6 39 -13 2 -8 18 -17 34 -20 34 -8
49 -25 20 -25 -11 0 -24 -6 -28 -13 -10 -16 -74 -47 -97 -47 -9 0 -16 -8 -16
-19 0 -11 -11 -28 -25 -39 -14 -11 -25 -25 -25 -31 0 -11 -15 -16 -35 -11 -5
1 -25 3 -42 4 -19 1 -39 10 -46 20 -8 11 -28 21 -46 22 -18 2 -39 10 -46 18
-17 16 -81 30 -96 20 -6 -4 -33 -8 -60 -9 -40 -2 -53 2 -75 22 -22 20 -33 23
-66 19 -31 -4 -47 -1 -69 15 -17 12 -36 19 -43 16 -7 -3 -20 3 -29 14 -18 20
-47 25 -62 10 -6 -5 -35 -22 -66 -38 l-56 -30 -20 21 c-11 12 -22 29 -26 39
-3 9 -15 17 -26 17 -11 0 -27 7 -36 16 -11 12 -19 13 -28 5 -13 -10 -76 5 -93
22 -4 4 -17 7 -29 7 -21 0 -45 17 -45 32 0 4 6 8 13 8 8 0 24 9 37 20 27 23
62 27 54 6 -6 -17 62 -28 88 -15 9 5 26 9 37 9 14 0 21 6 21 19 0 11 4 23 10
26 15 9 13 185 -2 189 -7 3 -258 9 -558 15 -669 14 -895 20 -940 26 -19 2 -91
27 -159 55 -69 27 -126 50 -128 50 -2 0 -3 -190 -2 -422 1 -388 2 -419 16
-381 l14 42 145 -4 c79 -2 144 0 144 5 0 4 10 8 23 8 12 1 114 7 227 15 113 8
238 15 279 16 72 1 74 1 106 -34 18 -19 35 -40 37 -47 6 -17 28 0 28 21 0 16
29 51 42 51 18 0 47 -41 50 -70 l3 -34 55 3 c30 1 52 -1 48 -5 -4 -4 0 -12 8
-19 24 -17 -2 -55 -38 -55 -14 0 -29 -6 -31 -12 -3 -8 -6 -5 -6 6 -1 16 -3 17
-18 5 -15 -13 -16 -12 -11 9 4 12 2 20 -3 16 -5 -3 -9 2 -9 10 0 9 -4 16 -10
16 -5 0 -10 -4 -10 -10 0 -15 -14 -12 -36 8 -22 21 -48 22 -83 3 -14 -8 -37
-10 -58 -6 -25 4 -43 1 -68 -14 -21 -12 -44 -18 -62 -15 -47 9 -70 -3 -93 -50
-11 -24 -20 -55 -18 -68 3 -25 -1 -28 -34 -28 -17 1 -29 13 -46 48 -13 26 -34
61 -47 77 -25 30 -25 30 -137 32 -80 1 -120 -3 -140 -13 -15 -8 -42 -14 -60
-14 -21 0 -28 -3 -20 -9 10 -6 10 -10 -3 -21 -18 -15 -20 -41 -2 -34 34 13 40
-101 8 -140 -7 -8 -10 -20 -6 -26 3 -5 1 -10 -4 -10 -6 0 -11 4 -11 9 0 5 -15
15 -33 22 -32 11 -57 46 -57 79 0 8 20 37 45 64 42 45 44 50 28 61 -10 7 -42
16 -71 20 -36 5 -57 13 -67 28 -13 19 -15 -10 -15 -282 0 -288 1 -303 18 -299
10 3 47 1 81 -3 57 -8 65 -7 94 15 43 32 92 56 115 56 29 0 53 -34 58 -82 6
-64 12 -85 29 -91 36 -15 149 59 196 127 41 62 83 63 167 8 57 -38 158 -138
178 -175 7 -12 20 -53 29 -92 27 -111 78 -221 109 -239 35 -21 66 -57 67 -79
1 -49 -14 -108 -24 -98 -6 6 -19 11 -29 11 -11 0 -28 15 -39 35 -12 19 -26 35
-32 35 -41 -1 -107 -25 -139 -51 -20 -16 -46 -29 -57 -29 -11 0 -23 -5 -27
-11 -3 -6 -17 -8 -31 -5 -13 4 -29 3 -36 -1 -20 -13 -110 -18 -148 -9 -15 3
-46 -1 -69 -9 -23 -8 -66 -15 -95 -15 -46 0 -58 -4 -91 -34 l-38 -33 -23 34
c-13 19 -22 42 -19 51 8 25 -25 58 -65 66 -38 7 -44 1 -69 -68 -10 -28 -11
-28 -24 -10 -8 10 -17 16 -21 13 -6 -7 -13 -47 -14 -87 -1 -13 -12 -34 -26
-48 -24 -24 -25 -30 -25 -144 0 -129 3 -135 48 -100 34 27 49 75 47 141 -3 71
10 115 37 123 22 5 72 -14 118 -44 19 -13 37 -16 75 -11 28 4 56 11 64 15 7 5
57 12 110 17 53 4 116 11 141 14 32 5 62 1 102 -13 61 -20 78 -17 111 25 16
19 28 23 80 23 34 1 82 5 105 9 70 14 97 -2 116 -68 12 -41 13 -58 4 -68 -13
-16 5 -59 25 -60 7 -1 30 -4 53 -8 40 -7 40 -6 59 34 15 33 23 41 45 41 40 0
51 -21 49 -87 -1 -32 0 -62 2 -68 2 -5 -1 -20 -5 -33 -5 -14 -3 -28 4 -37 9
-11 7 -18 -9 -34 -12 -12 -26 -21 -32 -21 -7 0 -9 -10 -5 -27 4 -16 8 -48 9
-72 2 -35 -2 -45 -18 -51 -18 -7 -18 -8 7 -15 27 -7 60 -35 40 -35 -5 0 -12
-10 -16 -23 -6 -27 -48 -53 -66 -42 -7 4 -18 23 -26 41 -14 32 -13 36 8 57 20
19 25 39 18 72 -1 6 -2 13 -1 18 0 4 -3 7 -9 7 -5 0 -10 7 -10 15 0 8 5 15 10
15 6 0 10 15 10 33 0 28 -5 34 -39 49 -21 9 -48 14 -60 11 -12 -3 -32 -1 -44
5 -31 16 -95 29 -146 31 -50 2 -151 -18 -151 -31 0 -4 -9 -8 -20 -8 -11 0 -20
-4 -20 -10 0 -5 -11 -10 -24 -10 -14 0 -31 -11 -42 -27 -10 -14 -27 -34 -36
-45 -10 -10 -18 -21 -18 -26 0 -4 -18 -16 -40 -26 -22 -11 -40 -22 -40 -26 0
-4 -20 -11 -45 -14 -25 -4 -45 -11 -45 -15 0 -5 -20 -6 -44 -4 -43 5 -45 4
-59 -28 -20 -49 -28 -97 -17 -104 14 -9 12 -53 -1 -57 -9 -3 -9 -10 0 -26 8
-14 8 -22 1 -22 -5 0 -10 5 -10 10 0 6 -10 10 -21 10 -16 0 -20 5 -16 20 4 15
0 20 -14 20 -11 0 -19 -7 -20 -17 0 -11 -3 -13 -6 -5 -2 6 -14 12 -25 12 -16
0 -19 -5 -14 -24 3 -14 2 -27 -3 -30 -8 -6 -22 24 -25 54 -2 16 -37 92 -47
100 -3 3 -8 13 -12 23 -6 15 -13 17 -44 10 -21 -4 -55 -7 -76 -6 -20 0 -37 -3
-37 -9 0 -5 -4 -7 -9 -4 -28 18 -32 -28 -29 -415 l3 -393 30 -7 c17 -4 43 -10
58 -13 20 -5 27 -11 23 -21 -3 -10 4 -17 22 -21 15 -4 32 -10 37 -14 24 -19
132 -32 203 -25 76 7 140 23 98 24 -35 1 -86 25 -86 39 0 10 10 13 34 10 32
-4 36 -1 52 35 23 50 29 53 61 23 22 -21 24 -27 14 -40 -11 -13 -10 -17 4 -22
11 -5 15 -14 11 -30 -6 -21 -1 -23 46 -33 29 -5 186 -12 348 -16 519 -10 743
-17 843 -24 73 -6 109 -4 135 5 21 7 45 13 55 14 16 0 16 2 2 23 -10 16 -13
35 -9 55 8 39 32 42 40 4 15 -72 19 -75 82 -66 100 15 182 11 255 -14 37 -13
92 -24 123 -24 62 -2 57 -8 -31 -38 -53 -18 -55 -18 -65 -1 -9 18 -95 49 -106
38 -12 -11 30 -58 58 -64 15 -3 28 -9 28 -14 0 -16 -40 -9 -58 9 -15 15 -31
18 -77 16 -53 -3 -74 -14 -75 -36 0 -5 8 -8 17 -8 33 0 83 -24 83 -40 0 -9
-11 -22 -25 -28 -21 -10 -33 -7 -82 19 -76 40 -158 69 -197 69 -77 0 -243 -43
-331 -86 -88 -43 -125 -63 -135 -74 -12 -13 -97 -76 -117 -87 -13 -7 -33 -19
-45 -25 -71 -39 -127 -81 -133 -98 -3 -10 -15 -22 -26 -25 -10 -4 -19 -11 -19
-16 0 -5 -5 -9 -10 -9 -9 0 -28 -18 -105 -101 -8 -9 -15 -21 -15 -28 0 -7 -9
-9 -23 -6 -30 8 -81 -40 -54 -51 17 -6 13 -13 -60 -90 -13 -13 -23 -28 -23
-34 0 -5 -4 -10 -9 -10 -11 0 -27 -42 -42 -113 -10 -46 -10 -65 1 -98 14 -41
14 -42 -16 -68 -70 -61 -149 -181 -139 -211 3 -11 2 -20 -3 -20 -13 0 -54 -96
-67 -159 -28 -128 -50 -200 -82 -267 -18 -39 -33 -75 -33 -80 0 -5 -10 -25
-23 -44 -13 -19 -36 -71 -51 -115 -15 -44 -32 -88 -37 -98 -9 -16 100 -17
2276 -17 1501 0 2284 4 2280 10 -3 6 -14 10 -23 11 -11 0 -12 3 -4 6 18 7 15
20 -8 26 -20 5 -28 27 -10 27 17 0 11 13 -20 50 -17 19 -28 40 -26 47 3 6 -5
13 -17 15 -19 3 -22 9 -22 51 0 33 -5 52 -16 60 -18 14 -33 61 -30 94 1 12 -5
25 -14 30 -13 8 -14 15 -5 37 5 15 14 24 20 21 16 -10 12 4 -11 34 -17 23 -19
32 -10 50 7 11 16 21 22 21 6 0 9 10 7 22 -2 13 2 23 9 23 7 0 19 9 28 20 9
11 14 14 10 8 -3 -7 -1 -13 4 -13 22 0 10 30 -11 31 -17 1 -19 2 -5 6 9 2 17
11 17 19 0 15 -25 15 -49 0 -11 -7 -12 -6 -5 5 4 7 9 34 11 59 3 66 13 110 23
110 6 0 10 -5 10 -11 0 -5 4 -7 10 -4 6 4 5 13 -2 25 -9 13 -16 16 -24 9 -8
-6 -14 -6 -18 -1 -7 12 20 36 33 28 5 -3 23 -3 41 0 23 5 30 11 25 23 -4 9 -8
22 -9 28 -1 7 -11 20 -22 28 -19 15 -19 15 2 33 12 10 25 28 28 40 4 12 12 22
17 22 5 0 9 5 9 10 0 6 -9 10 -20 10 -13 0 -20 7 -20 20 0 11 5 20 10 20 15 0
12 37 -5 54 -8 8 -15 22 -15 30 0 9 -9 21 -20 28 -11 7 -20 20 -20 29 0 9 -7
22 -15 29 -21 18 -19 27 9 32 15 3 27 0 30 -8 3 -8 15 -14 26 -14 15 0 19 4
13 13 -4 6 -6 19 -5 28 2 9 -4 19 -13 23 -28 10 3 44 39 41 17 -1 33 1 36 5 8
11 72 21 65 10 -3 -5 -1 -18 4 -27 10 -17 10 -17 11 0 0 9 4 17 9 17 14 0 2
35 -19 58 -10 11 -16 23 -13 26 4 3 1 6 -5 6 -7 0 -10 10 -8 23 3 12 5 26 5
30 1 5 6 5 11 2 6 -3 10 0 10 8 0 8 -7 18 -16 21 -9 4 -14 13 -10 21 3 8 2 15
-2 15 -5 0 -6 17 -3 38 4 32 5 34 10 13 6 -23 7 -23 24 -7 9 10 17 13 17 7 0
-6 9 -11 20 -11 26 0 25 18 -1 46 l-21 22 23 23 c16 16 21 17 16 6 -4 -11 -1
-17 8 -17 8 0 15 -4 15 -10 0 -5 9 -10 19 -10 11 0 21 -5 23 -11 2 -7 17 0 36
16 18 15 29 32 26 37 -5 7 3 9 20 6 17 -4 25 -1 23 6 -2 6 -18 12 -35 14 -18
2 -30 8 -27 13 4 5 1 9 -5 9 -6 0 -9 4 -6 9 3 5 0 11 -7 14 -20 8 -15 68 8 81
11 6 24 17 28 24 4 6 15 12 22 12 8 0 15 7 15 15 0 8 -9 15 -20 15 -11 0 -20
-5 -20 -11 0 -7 -10 -9 -25 -7 -26 6 -32 -1 -15 -18 8 -8 5 -18 -9 -35 -16
-19 -20 -21 -21 -7 0 9 5 20 10 23 6 3 -4 18 -21 32 -22 19 -27 29 -19 37 7 7
17 7 33 -2 22 -13 22 -13 2 5 -14 12 -20 28 -19 48 1 17 3 35 3 42 1 6 10 9
21 6 35 -9 21 15 -20 34 -35 16 -55 43 -31 43 13 0 20 25 14 49 -4 15 -13 21
-34 21 -16 0 -29 5 -29 10 0 6 5 10 10 10 7 0 7 7 0 21 -8 14 -8 24 -1 33 8
10 7 17 -4 26 -8 7 -15 21 -15 31 0 10 -5 21 -11 25 -6 3 -8 17 -5 30 4 16 2
24 -6 24 -10 0 -10 2 0 9 10 6 10 10 -3 21 -9 7 -14 19 -11 26 3 7 -2 18 -10
25 -8 7 -13 18 -10 26 3 8 -3 24 -14 35 -11 12 -20 31 -20 43 0 11 -6 27 -12
34 -10 11 -10 13 0 7 6 -4 12 -3 12 3 0 5 -4 11 -10 13 -5 1 -11 22 -13 46 -3
23 -7 45 -10 48 -3 3 -3 12 0 20 3 8 -1 14 -8 14 -12 0 -12 2 0 9 8 5 9 11 3
15 -6 3 -8 15 -5 26 3 11 0 26 -5 33 -6 7 -11 44 -10 81 0 38 -4 71 -9 74 -6
4 -10 18 -9 32 2 14 0 55 -3 92 -4 40 -3 69 3 71 6 2 6 9 1 18 -5 8 -10 29
-11 47 -1 26 4 34 22 38 21 5 31 29 37 86 1 12 5 14 13 7 8 -7 14 -7 18 0 4 6
14 7 23 4 13 -5 15 -2 10 16 -6 26 6 52 42 93 14 16 22 28 19 28 -4 0 2 17 12
37 12 26 15 42 8 50 -6 8 -6 18 1 31 6 11 8 22 4 25 -3 4 -1 12 5 19 15 18 4
114 -15 126 -5 4 -9 41 -9 83 1 57 -2 75 -11 72 -16 -6 -17 9 -1 25 9 9 9 12
0 12 -7 0 -12 11 -12 25 0 14 5 25 11 25 6 0 8 -8 4 -19 -5 -18 -3 -18 19 -8
18 8 22 15 14 24 -7 9 -3 11 17 7 24 -4 25 -3 14 17 -12 24 -59 68 -72 69 -4
0 -44 28 -90 63 -45 35 -127 93 -182 129 -55 36 -118 80 -140 97 -22 17 -53
41 -70 53 -51 38 -219 210 -262 268 -57 76 -135 227 -178 340 -64 172 -118
421 -131 595 -17 243 -26 916 -14 1085 4 59 3 114 -2 126 -7 14 -4 40 7 80 9
32 17 72 19 87 1 16 6 32 12 35 9 7 20 32 61 147 14 39 30 73 35 76 5 3 -10
14 -34 24 -33 14 -39 19 -23 23 33 7 37 18 12 31 -24 13 -52 50 -44 58 3 2 31
-1 64 -7 32 -6 89 -10 127 -8 l68 3 17 46 c38 99 141 224 235 283 120 76 241
106 461 113 139 5 175 2 275 -17 63 -12 119 -26 125 -31 5 -5 16 -9 25 -9 8 0
45 -16 83 -34 37 -18 67 -30 67 -27 0 3 -24 21 -53 38 -51 32 -51 32 -17 26
19 -3 38 -11 42 -17 5 -7 11 -7 20 3 11 12 10 13 -2 6 -8 -4 -5 2 7 14 26 24
33 26 33 8 0 -24 30 -15 51 15 11 15 27 28 35 28 24 0 21 89 -4 107 -9 7 -24
18 -32 25 -8 7 -18 12 -22 11 -5 -2 -8 3 -8 11 0 8 -10 16 -22 18 -12 2 -27
12 -33 24 -6 11 -15 19 -22 17 -7 -3 -21 1 -33 7 -21 11 -20 12 12 35 18 14
43 29 54 34 12 5 24 17 27 25 4 9 16 16 27 16 11 0 20 7 20 15 0 20 19 19 27
0 5 -14 8 -14 31 1 15 10 42 35 61 56 19 21 42 38 52 38 15 0 11 -11 -23 -55
-22 -30 -44 -55 -48 -55 -4 0 -11 -12 -14 -26 -4 -14 -18 -36 -33 -50 -22 -21
-23 -24 -9 -30 19 -7 44 16 111 101 62 79 270 281 316 307 23 12 47 32 53 42
37 66 160 185 265 255 l63 43 27 -29 c15 -15 51 -48 79 -72 50 -41 85 -99 143
-238 8 -18 17 -33 21 -33 5 0 8 -6 8 -14 0 -8 5 -18 11 -22 12 -7 9 33 -6 71
-4 11 4 5 19 -14 14 -19 26 -41 26 -48 0 -8 8 -16 18 -20 9 -3 24 -12 32 -19
8 -8 32 -28 52 -45 21 -17 38 -36 38 -41 0 -6 11 -19 25 -30 14 -11 25 -24 25
-30 0 -5 13 -23 30 -38 16 -15 30 -37 30 -49 0 -12 5 -21 10 -21 6 0 10 -5 10
-11 0 -5 -5 -7 -12 -3 -6 4 -8 3 -5 -4 4 -5 16 -8 27 -5 15 4 19 1 15 -9 -6
-16 -60 -38 -94 -38 -12 0 -43 -9 -69 -20 -26 -11 -56 -21 -67 -23 -11 -2 -42
-14 -70 -26 -27 -12 -60 -21 -72 -18 -31 6 -53 -10 -33 -24 12 -9 11 -10 -6
-6 -22 4 -44 -20 -44 -48 0 -8 -5 -15 -10 -15 -7 0 -7 -6 0 -19 5 -11 10 -28
10 -39 0 -15 -5 -18 -26 -14 -15 3 -29 13 -32 24 -5 22 -26 19 -30 -5 -5 -25
30 -96 47 -97 8 0 27 -12 42 -26 l26 -25 -5 27 c-4 22 -2 26 11 21 10 -4 20 1
26 11 9 15 10 14 11 -5 0 -13 5 -23 10 -23 6 0 10 7 10 15 0 11 7 14 24 9 13
-3 54 4 91 15 86 27 267 49 370 44 160 -6 316 -46 464 -120 62 -31 115 -62
118 -69 3 -7 18 -16 34 -19 16 -4 27 -11 24 -16 -4 -5 7 -6 23 -3 19 4 32 1
41 -10 8 -9 20 -16 27 -16 8 0 14 -5 14 -11 0 -12 25 -39 37 -39 21 -1 103
-110 119 -162 7 -18 38 -28 99 -30 52 -1 57 -5 38 -28 -11 -12 -36 -21 -71
-26 l-55 -7 52 -24 c45 -20 58 -22 89 -13 72 19 87 14 135 -45 58 -70 95 -183
103 -315 7 -120 18 -156 59 -191 46 -41 66 -90 71 -172 6 -87 -7 -127 -57
-180 -22 -23 -49 -60 -61 -82 -11 -22 -26 -47 -32 -55 -7 -8 -13 -25 -14 -37
-3 -64 102 11 111 78 3 22 8 43 11 46 3 3 26 0 52 -6 43 -11 49 -10 85 14 21
14 42 25 47 25 25 0 55 57 85 163 33 114 38 166 22 240 -5 27 -3 43 9 62 9 13
16 31 16 38 0 20 39 67 54 67 7 0 25 -11 41 -25 20 -20 25 -32 21 -50 -4 -16
-2 -25 5 -25 6 0 20 -10 30 -22 11 -11 19 -16 19 -9 0 8 5 8 20 -1 14 -9 19
-24 20 -53 0 -22 1 -47 2 -55 0 -8 -4 -41 -11 -73 -9 -49 -8 -61 4 -74 13 -13
15 -13 15 1 0 9 5 16 10 16 6 0 10 9 10 19 0 11 5 23 10 26 6 4 8 11 5 16 -4
5 1 12 9 15 9 3 16 12 16 20 0 8 6 14 13 14 8 0 7 3 -3 10 -8 5 -11 12 -7 16
3 4 15 1 24 -7 16 -13 17 -12 5 3 -11 14 -10 18 7 28 27 14 26 10 -5 -91 -31
-99 -118 -286 -165 -355 -82 -122 -449 -454 -639 -581 -55 -36 -65 -51 -80
-119 -28 -132 -139 -449 -203 -579 -10 -22 -45 -80 -76 -130 l-56 -90 2 -360
c1 -324 12 -580 29 -690 3 -22 6 -78 7 -125 0 -70 -5 -101 -31 -177 -17 -50
-45 -118 -61 -152 -31 -60 -210 -332 -282 -427 -22 -28 -39 -54 -39 -58 0 -5
-18 -29 -41 -54 -23 -26 -50 -66 -61 -89 -11 -24 -26 -43 -33 -43 -7 0 -15
-11 -19 -23 -3 -13 -16 -35 -29 -48 -13 -13 -33 -42 -46 -63 -12 -22 -34 -51
-48 -65 -36 -38 -113 -138 -113 -149 0 -20 -39 -44 -61 -37 -19 6 -21 4 -17
-19 4 -18 1 -26 -8 -26 -8 0 -14 -4 -14 -10 0 -5 -7 -10 -15 -10 -8 0 -15 -6
-15 -13 0 -6 -16 -25 -35 -41 -19 -16 -35 -37 -35 -45 0 -16 -69 -71 -88 -71
-15 0 -23 -43 -9 -52 6 -4 9 -8 7 -10 -43 -28 -54 -30 -65 -14 -16 22 -25 20
-25 -4 0 -15 -7 -20 -26 -20 -14 0 -23 -4 -19 -10 3 -5 -1 -10 -9 -10 -9 0
-16 -6 -16 -14 0 -7 -6 -19 -13 -25 -8 -6 -13 -21 -12 -33 1 -13 -2 -29 -8
-36 -5 -7 -7 -15 -3 -19 3 -4 13 2 20 13 14 18 15 18 24 -6 12 -30 8 -39 -16
-35 -9 1 -11 0 -4 -2 6 -3 12 -9 12 -15 0 -6 11 -8 25 -6 27 6 30 1 16 -21 -5
-7 -13 -11 -19 -7 -5 3 -13 -1 -16 -10 -4 -11 -14 -15 -31 -12 -24 5 -40 -13
-36 -40 2 -9 -4 -12 -18 -7 -14 4 -23 0 -32 -17 -6 -13 -18 -27 -25 -31 -8 -4
-14 -13 -14 -19 0 -6 8 -4 18 5 22 20 32 22 32 6 0 -17 -40 -49 -61 -49 -10 0
-21 -5 -24 -10 -4 -6 -11 -7 -17 -4 -7 4 -8 2 -4 -4 4 -7 2 -12 -3 -12 -6 0
-10 -10 -8 -22 1 -14 -4 -23 -13 -23 -15 0 -20 -6 -20 -25 0 -15 31 -12 51 6
16 14 18 14 24 -5 6 -20 11 -23 44 -25 8 -1 16 -7 19 -15 3 -9 0 -11 -8 -6 -9
5 -11 4 -6 -3 4 -7 16 -12 27 -12 11 0 17 -4 14 -10 -3 -6 5 -10 18 -10 14 0
28 -7 31 -16 5 -12 10 -13 19 -5 10 7 17 5 30 -9 15 -18 15 -21 -7 -45 -17
-18 -25 -22 -29 -13 -2 7 -7 10 -11 7 -3 -3 4 -16 15 -28 16 -17 19 -25 9 -31
-6 -4 -10 -16 -7 -26 4 -17 6 -17 12 4 4 13 13 21 19 19 6 -2 16 3 23 12 11
14 12 14 13 -5 0 -27 7 -33 31 -27 14 4 18 12 15 32 -2 14 -8 25 -13 24 -16
-3 -45 79 -31 88 16 10 38 0 32 -16 -7 -16 24 -23 126 -29 41 -3 75 -8 75 -13
1 -4 5 -26 10 -48 4 -22 7 -47 6 -55 -3 -17 -29 -43 -52 -52 -9 -4 -19 -20
-22 -37 -4 -18 -18 -43 -32 -57 -14 -14 -25 -29 -25 -34 0 -6 -9 -15 -20 -22
-11 -7 -20 -17 -20 -23 0 -5 -14 -23 -30 -39 -17 -16 -30 -35 -30 -42 0 -6 -7
-14 -15 -18 -8 -3 -14 -9 -13 -13 3 -16 -22 -63 -33 -63 -7 0 -10 -3 -6 -6 3
-4 -1 -23 -10 -43 -14 -32 -25 -79 -37 -150 -2 -13 -8 -26 -14 -30 -5 -3 -8
-23 -7 -44 3 -28 -1 -41 -15 -49 -14 -9 -16 -17 -8 -45 5 -20 5 -46 -1 -68 -5
-19 -7 -43 -4 -54 3 -11 -2 -41 -11 -68 -22 -69 -56 -200 -56 -218 0 -13 323
-15 2995 -15 l2996 0 -20 21 c-23 25 -32 96 -14 111 10 8 10 14 2 24 -6 8 -9
30 -7 51 4 35 -19 99 -50 135 -5 7 -12 38 -13 68 -2 43 0 55 11 55 15 0 28 19
29 43 1 6 -5 12 -13 12 -18 0 -49 47 -36 55 16 10 11 28 -6 21 -13 -5 -15 -2
-11 14 3 11 1 20 -4 20 -5 0 -9 5 -9 11 0 7 11 9 30 6 29 -6 49 6 30 18 -6 4
-10 14 -8 23 4 31 -12 74 -26 69 -17 -7 -56 33 -56 55 0 21 -52 59 -85 62 -34
4 -54 23 -32 32 9 3 18 18 22 33 5 23 11 27 35 25 17 -1 30 2 30 7 0 5 12 9
26 9 27 0 27 0 20 61 -9 72 -36 129 -64 129 -11 0 -48 39 -46 49 1 3 -3 17 -9
31 -6 14 -9 31 -8 38 1 6 -5 12 -14 12 -8 0 -15 4 -15 9 0 6 16 7 36 4 l36 -6
-7 34 c-4 19 -11 37 -16 40 -5 3 -10 18 -12 35 -6 46 -26 77 -45 69 -16 -6
-16 -5 -1 10 15 15 14 21 -13 75 -15 33 -33 62 -38 65 -6 3 -10 15 -10 27 0
11 -8 22 -20 25 -11 3 -17 9 -14 14 3 5 0 9 -7 9 -6 0 -9 8 -6 19 4 18 -10 31
-34 31 -15 0 -10 -27 6 -34 17 -6 21 -46 5 -46 -5 0 -10 5 -10 10 0 6 -4 10
-10 10 -17 0 -11 -21 12 -39 26 -22 17 -40 -17 -33 -21 4 -25 10 -23 30 2 19
-4 28 -27 41 -19 10 -29 22 -27 33 4 19 36 33 52 23 6 -3 17 1 26 10 20 20 11
61 -21 95 -55 58 -71 76 -80 94 -5 11 -24 26 -42 35 -23 11 -31 21 -27 34 4
13 0 17 -19 17 -14 0 -28 7 -31 16 -4 11 -13 14 -31 10 -30 -8 -33 9 -6 26 18
11 19 14 4 39 -9 14 -29 34 -45 43 -15 10 -36 28 -44 42 -9 13 -22 24 -29 24
-7 0 -18 7 -25 15 -7 8 -17 12 -23 8 -6 -3 -7 -1 -3 5 4 6 -4 16 -16 23 -13 7
-25 15 -28 19 -7 8 -135 80 -185 103 -49 22 -53 26 -36 36 7 5 33 2 59 -5 25
-8 47 -12 50 -10 10 11 -12 26 -37 26 -15 0 -36 9 -46 20 -16 18 -17 22 -4 35
12 13 23 12 82 -2 55 -13 73 -14 88 -5 24 15 91 6 139 -19 19 -10 60 -30 90
-44 30 -15 73 -40 95 -56 22 -16 76 -47 120 -69 74 -35 89 -39 190 -44 236
-12 264 -14 273 -20 5 -3 60 -6 123 -7 63 -1 122 -4 132 -8 10 -4 34 -5 53 -3
l34 4 0 398 0 399 -22 7 c-13 4 -28 8 -34 8 -7 1 -33 20 -59 44 -25 23 -51 40
-55 37 -5 -3 -12 -28 -16 -55 -5 -36 -12 -51 -26 -56 -10 -3 -69 -3 -131 1
-62 3 -179 7 -262 8 l-150 3 -74 39 -74 39 -36 -42 c-21 -23 -40 -42 -43 -42
-12 0 -38 82 -38 119 0 52 9 56 46 20 39 -38 68 -36 72 6 2 17 11 35 20 40 10
6 67 10 127 10 94 0 117 4 160 24 45 20 59 22 140 16 50 -3 124 -6 165 -7 74
-1 110 -12 110 -34 0 -8 13 -7 43 4 23 8 63 15 90 15 l47 -1 0 74 c0 81 -8 89
-60 59 -29 -17 -215 -21 -225 -5 -3 6 0 13 8 16 18 7 41 59 33 73 -3 5 0 11 6
14 10 3 10 10 -2 28 -10 17 -15 59 -16 139 -2 125 -12 207 -25 216 -5 3 -9 14
-9 24 0 11 -9 24 -20 30 -25 14 -26 50 -1 115 13 35 25 51 40 53 13 2 21 -2
21 -12 0 -8 7 -21 15 -30 25 -25 63 -1 76 48 28 102 41 126 67 119 15 -4 18
-16 17 -86 0 -74 2 -84 24 -106 l25 -24 12 34 c10 26 13 419 13 1729 0 948 -3
1689 -8 1681 -6 -8 -11 -9 -15 -3 -4 6 2 15 11 21 14 8 15 10 3 11 -13 0 -13
1 0 11 12 8 9 9 -11 5 -19 -4 -34 1 -53 17 -33 28 -25 37 31 37 l43 0 0 95 c0
52 -3 95 -7 95 -19 -1 -58 -30 -58 -42 0 -7 -11 -14 -25 -16 -25 -3 -25 -2 -5
14 l20 16 -20 -2 c-25 -3 -65 10 -65 20 0 18 61 32 110 25 l51 -7 -3 823 c-2
552 -6 823 -13 826 -6 2 -16 -18 -24 -44 -19 -71 -30 -89 -54 -90 -12 0 -30
-4 -39 -8 -15 -6 -18 -2 -18 20 0 18 12 39 36 63 64 64 66 69 70 225 2 79 11
201 20 273 10 79 18 233 21 397 5 259 4 268 -14 259 -19 -11 -72 -10 -90 1 -6
4 -16 0 -23 -8 -9 -11 -16 -12 -25 -5 -9 7 -19 5 -34 -7 -20 -17 -22 -29 -28
-233 -8 -259 -8 -385 0 -425 3 -16 -1 -77 -9 -134 -8 -60 -11 -108 -6 -115 17
-21 19 -53 10 -117 -11 -68 -30 -100 -81 -135 l-32 -22 8 87 c14 144 15 215 4
229 -6 8 -8 47 -4 105 7 100 3 133 -19 141 -8 3 -13 2 -13 -2 2 -14 -14 -52
-22 -52 -4 0 -11 -17 -15 -37 -6 -29 -9 -33 -14 -19 -6 17 -10 16 -46 -17 -39
-35 -40 -35 -53 -15 -12 20 -13 20 -30 -8 -16 -27 -51 -62 -51 -52 0 2 9 23
20 46 11 22 20 45 20 50 0 14 32 75 47 90 7 7 13 17 13 20 0 18 70 44 111 40
l43 -3 12 49 c8 33 11 84 8 145 -8 128 -8 121 1 243 l8 107 -33 19 c-18 11
-48 23 -66 27 -26 4 -34 11 -34 27 0 29 -17 11 -22 -22 -3 -22 -8 -25 -49 -28
-38 -2 -50 1 -71 23 -26 26 -26 27 -12 68 8 23 21 52 29 64 17 25 16 73 0 73
-17 0 -55 -44 -55 -63 0 -9 -4 -18 -9 -21 -5 -3 -12 -26 -15 -51 -5 -29 -14
-49 -27 -55 -10 -6 -19 -8 -19 -5 0 3 -11 -2 -25 -11 -38 -25 -165 -25 -189
-1 -10 10 -15 24 -12 34 10 25 -13 83 -30 76 -8 -3 -14 -13 -14 -23 0 -11 -4
-22 -10 -25 -5 -3 -10 -15 -10 -25 0 -13 -9 -22 -26 -26 -15 -4 -35 -14 -44
-23 -9 -9 -31 -24 -48 -33 -29 -15 -32 -22 -32 -61 0 -65 15 -68 251 -65 213
3 236 -1 267 -55 17 -28 16 -29 -9 -51 -25 -22 -37 -23 -235 -29 -115 -3 -222
-10 -236 -16 -34 -13 -41 -38 -41 -155 0 -172 6 -265 17 -263 7 1 10 -13 8
-37 -3 -28 -1 -36 8 -31 13 8 12 -6 -6 -90 -4 -16 -7 -41 -8 -55 -2 -31 -14
-52 -27 -45 -5 4 -9 -1 -9 -9 0 -9 -5 -16 -11 -16 -6 0 -17 -7 -25 -15 -9 -8
-26 -15 -39 -15 -32 0 -35 28 -13 140 12 56 17 111 13 135 -8 54 -6 335 2 348
10 16 3 90 -10 105 -9 11 -70 13 -332 8 -410 -8 -511 -14 -526 -32 -13 -15
-15 -123 -7 -362 4 -140 -1 -194 -15 -141 -3 12 -10 18 -16 14 -6 -3 -9 -9 -7
-13 2 -4 7 -44 11 -89 5 -58 4 -83 -4 -83 -6 0 -11 -7 -11 -15 0 -8 -4 -15
-10 -15 -5 0 -10 -6 -10 -14 0 -19 -17 -29 -32 -19 -7 4 -17 8 -23 8 -5 0 -10
10 -9 22 0 12 -3 20 -8 17 -11 -7 1 187 12 201 6 7 6 34 1 65 -5 30 -7 59 -5
65 8 22 15 116 16 233 1 98 -1 125 -13 133 -8 5 -169 8 -376 6 -319 -2 -364
-4 -379 -18 -13 -13 -17 -47 -21 -175 -6 -208 -6 -195 2 -301 7 -82 6 -93 -8
-93 -11 0 -17 -11 -19 -37 -3 -33 -6 -38 -26 -36 -13 2 -21 -1 -18 -5 2 -4 1
-14 -4 -22 -7 -11 -11 -11 -24 -1 -18 15 -22 61 -6 61 6 0 10 5 10 11 0 5 -5
7 -10 4 -7 -4 -9 2 -5 18 4 14 2 34 -4 45 -14 26 -14 66 -2 125 12 53 22 214
26 407 1 69 4 151 5 182 3 70 -15 121 -40 113 -16 -5 -74 38 -64 48 3 2 -6 7
-20 9 -14 3 -24 1 -23 -5 1 -5 -3 -11 -10 -14 -11 -4 -17 22 -28 110 -5 41 17
132 39 162 13 18 14 17 21 -13 l7 -33 34 31 c19 16 41 30 49 30 8 0 18 8 23
18 11 19 21 234 23 462 2 167 -8 217 -39 205 -9 -4 -57 -15 -105 -25 -91 -19
-141 -19 -269 1 -37 6 -91 10 -120 9 -61 -1 -64 -1 -178 -1 -47 0 -98 -1 -115
-1 -33 0 -97 11 -105 19 -3 2 -10 19 -16 36 -6 18 -14 30 -19 27 -12 -7 -33
73 -22 81 12 8 -2 51 -14 44 -13 -9 -11 9 3 23 13 13 19 132 6 132 -5 0 -4 9
2 19 5 11 10 38 10 61 0 35 4 42 28 52 15 6 30 11 34 10 4 -1 10 8 13 21 5 16
18 26 48 35 49 14 124 13 149 -2 13 -8 22 -6 37 8 11 10 27 16 36 13 8 -4 15
-2 15 4 0 5 -10 13 -22 18 -27 10 -61 7 -160 -14 -15 -4 -46 0 -70 8 -30 11
-91 16 -200 16 -194 2 -248 17 -248 67 0 22 -4 24 -51 24 l-50 0 0 -77 c1 -79
-5 -194 -14 -270 -2 -23 0 -45 5 -48 6 -4 6 -14 -2 -28 -7 -12 -11 -26 -10
-31 7 -24 -22 -146 -35 -146 -18 0 -17 -19 2 -26 9 -4 15 -19 15 -35 0 -22 -6
-30 -25 -35 -32 -8 -115 2 -129 16 -17 17 -34 11 -38 -12 -2 -18 -10 -24 -39
-26 -24 -2 -42 3 -53 13 -14 15 -16 15 -16 1 0 -41 -56 4 -65 51 -4 21 -12 44
-18 51 -8 10 -8 15 0 20 8 5 10 38 6 102 -8 135 -3 311 9 333 11 22 -2 41 -45
64 -53 27 -58 35 -34 61 l20 22 -44 0 c-38 0 -46 -4 -57 -27 -6 -15 -12 -35
-12 -45 0 -10 -7 -21 -15 -24 -11 -5 -13 -13 -9 -28 4 -11 8 -30 9 -41 1 -11
4 -22 5 -25 1 -3 3 -30 4 -60 3 -57 -19 -120 -40 -120 -14 0 -30 41 -33 85 -2
20 -2 20 -16 1 -8 -11 -15 -32 -15 -48 0 -15 -4 -28 -10 -28 -5 0 -14 -9 -20
-20 -9 -17 -7 -22 12 -29 21 -8 19 -9 -12 -11 -36 -2 -199 -1 -350 2 -47 1
-95 -1 -107 -4 -11 -4 -43 -9 -70 -13 -84 -11 -103 -16 -103 -28 0 -7 -27 -21
-61 -31 -33 -11 -62 -23 -65 -28 -3 -4 -16 -8 -28 -8 -13 0 -29 -7 -36 -15 -7
-8 -15 -13 -19 -10 -4 2 -28 -2 -53 -10 -50 -15 -65 -11 -43 12 8 8 15 24 15
37 0 12 6 28 13 35 6 7 8 12 2 11 -28 -6 -44 2 -48 23 l-4 22 -2 -22 c0 -13
-5 -24 -11 -24 -38 -5 -45 -2 -42 16 2 17 2 135 -1 185 0 8 2 34 6 57 6 39 4
46 -28 77 -29 29 -32 36 -20 46 8 7 15 17 15 22 0 6 9 23 21 39 l20 29 -35 0
c-33 0 -36 -3 -36 -27 -1 -24 -2 -25 -11 -10 -12 21 -29 22 -29 2 0 -8 4 -15
9 -15 5 0 12 -7 15 -16 5 -14 4 -15 -9 -4 -13 11 -15 7 -17 -31 -3 -89 3 -148
19 -161 7 -5 10 -14 7 -19 -3 -5 -1 -9 5 -9 5 0 12 8 15 18 2 9 4 4 3 -13 -2
-25 -7 -31 -31 -35 -17 -3 -29 -8 -28 -12 1 -5 1 -9 1 -10 -5 -12 -5 -98 0
-98 14 0 10 -78 -5 -84 -23 -9 -16 -33 11 -40 27 -7 35 -36 10 -36 -7 0 -18
-8 -24 -17 -5 -10 -13 -15 -17 -11 -4 4 -19 1 -33 -6 -14 -8 -33 -17 -42 -19
-22 -7 -31 -67 -10 -67 8 0 -3 -10 -24 -21 -22 -12 -55 -30 -74 -40 -27 -15
-46 -17 -87 -13 -29 4 -65 2 -81 -3 -15 -5 -66 -7 -113 -4 -73 5 -85 8 -85 24
0 10 -8 23 -19 29 -14 8 -17 18 -12 52 3 22 8 140 12 262 6 183 4 223 -7 230
-8 5 -86 10 -174 11 -88 0 -209 4 -270 8 -60 4 -120 7 -132 6 -12 0 -25 4 -28
9 -3 6 -14 10 -24 10 -9 0 -22 5 -28 11 -14 14 -6 39 12 39 8 0 20 6 27 13 26
27 150 56 260 62 31 1 66 10 79 19 22 15 6 16 -234 16 l-257 0 -1 -52 c-2
-109 -7 -179 -12 -184 -3 -3 -1 -20 4 -37 6 -20 5 -80 -2 -162 -6 -71 -11
-134 -11 -140 0 -5 1 -37 1 -70 0 -33 0 -72 0 -86 0 -42 -26 -57 -109 -62 -41
-3 -114 -11 -162 -18 -104 -15 -133 -8 -159 38 -16 29 -18 60 -18 283 0 152 4
252 10 256 6 4 5 12 -4 22 -30 35 -36 76 -16 113 10 18 18 49 19 67 l0 32 -69
0 c-46 0 -71 -4 -74 -12 -4 -10 -6 -10 -6 0 -1 8 -18 12 -48 12 l-48 0 0 -215
c0 -118 -2 -215 -5 -215 -3 0 -7 -35 -8 -77 -1 -43 -3 -107 -5 -143 -2 -36 -5
-81 -6 -100 -1 -29 -9 -40 -44 -65 -45 -32 -61 -34 -367 -34 -52 0 -129 0
-170 -1 -71 -1 -77 0 -101 28 -19 21 -25 37 -23 63 1 19 5 106 8 194 3 88 8
194 11 236 7 90 9 89 -120 89 -44 0 -86 4 -94 9 -8 5 -16 23 -17 40 -3 42 36
62 130 68 101 6 129 30 118 101 -3 22 -5 22 -173 22 -154 0 -169 -2 -170 -17
0 -10 -2 -54 -5 -98 -2 -44 -3 -109 -2 -145 1 -36 1 -83 0 -105 0 -22 -3 -112
-5 -200 -3 -88 -5 -176 -6 -196 -1 -47 -20 -70 -58 -71 -18 -1 -30 -5 -27 -10
11 -18 -51 6 -68 26 -10 12 -17 15 -18 9 0 -7 -3 -13 -7 -13 -5 0 -7 28 -5 63
1 34 3 82 3 107 1 25 4 50 8 55 3 6 6 28 6 50 1 22 4 46 9 53 7 11 1 16 -16
13 -8 -1 1 28 14 45 4 6 5 26 2 44 -5 21 -3 35 6 40 7 4 9 16 5 29 -3 12 -11
19 -16 16 -5 -4 -9 1 -9 9 0 10 9 16 23 17 l22 0 -23 10 c-13 5 -20 13 -17 19
3 6 0 13 -8 16 -16 6 -15 29 3 104 6 25 13 64 16 88 l5 42 -35 0 c-20 0 -36
-5 -36 -11 0 -6 -8 -27 -17 -46 -13 -28 -14 -39 -5 -54 10 -16 9 -19 -5 -19
-16 -1 -16 -2 -2 -13 13 -10 16 -40 17 -179 0 -92 -3 -170 -8 -173 -9 -6 -6
-171 5 -226 4 -23 3 -39 -4 -43 -6 -4 -11 -16 -11 -27 0 -10 -5 -19 -11 -19
-5 0 -7 -4 -4 -10 3 -5 1 -10 -6 -10 -7 0 -20 -6 -28 -14 -33 -28 -205 -52
-239 -33 -4 3 -31 1 -60 -3 -48 -6 -55 -4 -78 19 l-26 25 7 271 7 271 -24 12
c-16 9 -56 12 -121 10 -53 -2 -97 -1 -97 2 0 3 -48 4 -107 3 -75 -1 -117 2
-142 13 l-36 15 30 19 c34 20 105 28 290 31 174 3 191 6 204 38 11 27 16 76
13 124 l-2 27 -313 0 -314 0 -8 -207 c-4 -115 -10 -228 -12 -253 -2 -25 -6
-108 -8 -185 -3 -77 -6 -144 -6 -150 -1 -5 0 -14 1 -20 6 -26 -14 -53 -43 -60
-18 -4 -36 -7 -42 -5 -5 1 -18 3 -28 5 -36 8 -37 15 -37 223 0 269 -3 346 -13
353 -5 4 -33 7 -63 8 -138 3 -184 15 -184 46 0 38 41 57 146 71 52 7 100 17
108 23 8 7 12 31 11 71 -2 33 2 60 7 60 5 0 6 5 3 10 -4 7 -99 10 -261 10
l-254 -1 -1 -177z m3147 -53 c0 -65 -2 -119 -5 -119 -3 0 -5 -34 -3 -75 2 -42
0 -75 -6 -75 -5 0 -7 -11 -4 -25 2 -14 9 -25 16 -25 6 0 5 -4 -3 -9 -11 -7
-12 -17 -4 -49 7 -28 7 -47 -2 -68 -9 -23 -9 -32 1 -41 9 -10 10 -18 1 -38
-20 -43 -60 -23 -48 24 8 30 7 63 -3 80 -4 6 -3 11 2 11 5 0 9 26 8 58 0 31 3
66 8 77 12 28 14 66 5 93 -5 14 -5 22 2 22 6 0 7 5 3 12 -4 6 -7 42 -6 79 1
38 -3 71 -8 74 -11 7 0 45 14 45 8 0 8 2 0 8 -8 5 -7 17 3 41 8 18 17 30 21
27 4 -4 7 -61 8 -127z m1252 -58 c12 -13 13 -40 7 -165 -4 -83 -7 -168 -6
-188 0 -24 -4 -38 -12 -38 -8 0 -8 -3 2 -9 11 -7 9 -14 -12 -37 -29 -31 -63
-40 -83 -23 -11 9 -32 101 -27 119 1 3 5 14 8 25 5 14 4 16 -2 7 -7 -9 -10 8
-10 50 0 41 2 56 8 43 7 -19 8 -19 8 2 1 12 4 28 7 37 4 10 1 16 -8 16 -18 0
-45 43 -29 48 17 6 13 20 -6 25 -15 4 -15 6 5 12 12 4 22 12 22 17 0 5 -4 6
-10 3 -5 -3 -10 -1 -10 4 0 6 3 11 8 11 4 0 18 16 30 35 17 24 32 35 55 37 18
2 34 -1 36 -7 2 -5 11 -16 19 -24z m1683 -186 c107 -15 198 -43 169 -53 -8 -3
-18 -10 -22 -16 -5 -8 -17 -6 -39 7 -34 19 -59 22 -59 8 0 -5 14 -13 32 -16
17 -4 42 -18 55 -31 13 -13 28 -24 32 -24 13 0 20 -25 14 -49 -4 -14 -13 -21
-29 -21 -27 0 -44 -28 -25 -39 6 -4 -28 -13 -76 -20 -142 -19 -153 -21 -153
-31 0 -6 -31 -10 -70 -10 -45 0 -70 4 -70 11 0 8 -15 9 -47 4 -102 -16 -433
-25 -433 -12 0 4 -11 7 -23 7 -13 0 -26 3 -29 6 -10 9 95 115 134 135 21 11
59 20 84 21 25 2 50 8 55 14 8 9 4 11 -13 7 -13 -3 -19 -2 -15 2 11 13 40 15
53 4 8 -6 14 -5 17 5 5 12 19 14 64 11 40 -3 52 -2 38 5 -11 5 -30 9 -42 9
-27 1 -31 20 -5 22 9 1 24 3 32 4 8 1 24 3 35 4 16 1 17 3 6 10 -19 12 85 33
144 30 24 -2 47 0 51 4 10 9 15 9 135 -8z m1806 -324 c10 -38 109 -63 181 -47
21 5 32 4 32 -3 0 -6 -4 -11 -10 -11 -5 0 -10 -5 -10 -11 0 -8 4 -9 13 0 8 6
16 9 19 6 3 -3 26 4 52 15 73 31 98 27 130 -19 22 -31 25 -43 17 -59 -7 -13
-7 -22 0 -29 6 -6 11 -47 11 -93 0 -76 -2 -84 -30 -118 -33 -42 -68 -48 -137
-24 -31 10 -48 11 -76 3 -48 -15 -55 -14 -75 6 -13 13 -19 14 -22 5 -2 -6 -13
-12 -25 -12 -12 -1 -38 -7 -59 -14 -30 -11 -43 -11 -75 0 -46 17 -90 18 -95 3
-2 -6 -24 -13 -50 -16 -45 -5 -47 -4 -73 35 -32 48 -44 118 -33 190 5 29 6 57
3 62 -3 4 2 10 10 14 8 3 15 12 15 20 0 21 49 56 79 56 15 0 37 -7 49 -16 21
-14 25 -14 48 1 14 9 29 27 34 39 5 13 14 26 21 28 30 10 51 6 56 -11z m-757
-73 c0 -9 112 -4 260 12 l85 9 32 -34 c25 -27 31 -39 27 -65 -3 -17 0 -38 6
-45 6 -8 9 -22 6 -32 -2 -10 -8 -43 -11 -73 -7 -53 -26 -103 -43 -114 -5 -3
-87 -6 -181 -6 -144 -1 -176 1 -190 14 -15 14 -19 14 -33 0 -13 -14 -18 -13
-44 9 -16 13 -48 33 -72 44 l-43 21 7 -21 c4 -12 13 -27 20 -35 8 -7 14 -21
14 -30 0 -14 -11 -17 -68 -16 -37 1 -80 5 -95 9 -17 5 -39 3 -55 -4 -36 -17
-73 11 -78 59 -3 18 -6 36 -9 38 -2 3 0 13 6 23 6 12 6 26 1 37 -5 9 -6 26 -2
36 7 21 -24 96 -40 96 -4 0 -16 -7 -25 -16 -13 -13 -15 -28 -10 -68 9 -72 6
-160 -6 -164 -5 -2 -9 -9 -9 -16 0 -23 -49 -36 -133 -36 -119 0 -228 8 -241
19 -6 5 -44 12 -83 16 -40 4 -73 11 -73 15 0 5 7 16 16 25 15 15 15 17 -2 30
-16 11 -19 28 -19 102 -1 49 -4 94 -8 100 -11 17 41 53 76 53 17 0 35 -8 43
-17 12 -17 15 -17 56 5 24 12 58 22 76 22 35 0 68 -23 57 -40 -3 -5 -4 -10 -1
-10 2 0 11 -3 20 -6 12 -4 16 0 16 15 0 17 7 21 33 22 58 3 98 7 111 12 8 3
28 -10 47 -29 25 -25 38 -32 56 -28 13 4 29 1 37 -5 11 -9 15 -6 20 14 4 14
11 25 17 25 6 0 7 5 3 12 -5 8 0 9 17 4 51 -15 99 -19 99 -7 0 6 7 11 16 11 8
0 12 -5 9 -11 -10 -16 28 -6 41 11 10 11 17 12 35 3 39 -19 59 -23 59 -13 0 6
7 10 15 10 8 0 19 8 24 18 7 14 18 17 45 14 26 -3 36 0 36 9 1 15 30 -18 30
-33z m-1570 -10 c26 3 30 0 30 -22 0 -14 1 -26 3 -26 1 0 20 7 42 15 47 17
111 19 120 5 3 -5 14 -10 25 -10 10 0 21 -8 25 -17 6 -16 8 -16 18 -2 19 25
90 49 110 37 13 -7 15 -13 8 -22 -8 -10 -4 -16 15 -25 24 -11 25 -13 11 -34
-12 -19 -12 -28 -1 -67 8 -25 14 -56 14 -70 -1 -25 -21 -60 -35 -60 -4 0 -19
-8 -33 -18 -18 -11 -44 -17 -77 -16 -80 3 -227 12 -268 17 -36 5 -150 48 -232
88 -22 10 -67 30 -100 42 l-60 24 2 47 c2 25 10 57 18 70 14 22 22 24 80 21
35 -2 69 -6 74 -9 5 -4 12 -2 16 3 4 7 15 7 30 1 14 -5 25 -6 25 -2 0 4 4 1 8
-6 13 -20 60 3 73 35 8 22 12 24 19 13 6 -9 21 -14 40 -12z m-1665 -68 c-12
-19 25 -22 52 -5 18 12 42 17 73 16 25 -2 59 -3 75 -2 17 0 48 1 69 1 51 1 90
-15 105 -44 11 -19 9 -29 -9 -63 -18 -35 -28 -43 -60 -48 -21 -4 -46 -13 -57
-22 -17 -14 -17 -14 1 -8 11 3 47 8 80 11 l61 6 -31 -20 c-38 -25 -119 -39
-128 -23 -10 15 -56 13 -86 -3 -100 -56 -231 -116 -240 -111 -6 4 -21 0 -33
-8 -12 -8 -37 -18 -55 -21 -17 -4 -32 -11 -32 -15 0 -16 -82 -2 -95 15 -16 22
-25 85 -25 172 0 67 24 136 56 163 19 15 82 15 97 0 20 -20 63 -13 77 14 11
20 20 25 46 23 19 -1 37 1 41 5 9 10 26 -20 18 -33z m1119 25 c15 -12 22 -12
27 -3 6 9 11 5 17 -12 12 -34 -5 -73 -30 -67 -11 3 -18 0 -18 -8 0 -8 -15 -17
-35 -21 -47 -8 -55 -24 -9 -17 36 6 54 -5 54 -36 0 -10 -10 -12 -42 -6 -24 3
-58 7 -75 7 -22 1 -33 7 -33 16 0 10 -7 13 -22 8 -13 -3 -33 -6 -46 -6 -13 0
-21 -3 -19 -7 7 -11 -232 -10 -318 1 -38 5 -73 14 -77 20 -5 7 -12 5 -20 -7
-15 -20 -50 -14 -42 8 3 7 1 16 -5 20 -34 21 30 96 85 100 16 2 46 6 66 10 20
4 45 4 55 0 10 -5 45 -9 78 -11 33 -1 76 -6 95 -11 21 -5 53 -5 83 1 42 9 50
8 58 -6 9 -16 35 -15 49 1 32 38 92 50 124 26z m-2504 -12 c1 -19 61 -63 85
-63 8 0 17 4 20 10 8 14 137 11 156 -4 30 -22 39 -55 39 -145 0 -50 4 -91 9
-91 5 0 12 39 16 88 9 117 13 132 37 132 11 0 27 7 35 16 17 17 62 12 74 -8 5
-8 13 -6 24 5 9 10 27 17 40 17 13 0 27 5 30 10 8 13 43 8 102 -13 l42 -16 3
27 c3 23 8 26 40 29 26 1 42 -3 50 -16 7 -9 24 -18 38 -18 14 -1 26 -7 28 -13
3 -8 10 -7 21 3 9 8 28 17 43 21 21 5 30 1 43 -16 8 -13 18 -22 22 -20 18 8
18 -39 2 -103 -10 -38 -19 -84 -19 -102 0 -39 -28 -90 -53 -97 -10 -2 -34 -2
-53 1 -20 3 -40 1 -49 -7 -10 -8 -80 -12 -244 -13 -229 -2 -231 -2 -246 21
-14 19 -19 20 -38 10 -12 -6 -27 -17 -32 -25 -8 -10 -63 -14 -252 -17 -222 -3
-244 -2 -272 15 -17 10 -31 24 -31 30 0 6 -19 -6 -42 -26 -41 -35 -45 -37 -93
-29 -27 4 -70 7 -94 7 -76 -1 -92 36 -62 137 19 63 20 72 7 93 -13 19 -13 29
-4 61 14 46 46 65 82 48 13 -6 27 -8 31 -4 13 13 87 11 115 -3 40 -21 58 -84
36 -129 -24 -51 -30 -102 -14 -125 8 -11 19 -17 25 -13 18 12 24 45 24 140 l1
91 44 20 c48 23 79 27 89 10 5 -7 12 -5 23 5 10 8 36 22 60 31 31 13 40 21 32
30 -11 13 -4 25 17 25 7 0 13 -8 13 -17z m-990 -45 c0 -5 12 -7 28 -3 20 4 33
1 42 -10 14 -17 105 -21 159 -5 40 11 94 -7 110 -39 6 -11 11 -41 10 -68 0
-26 2 -77 6 -113 7 -64 6 -66 -24 -94 -34 -32 -34 -32 -191 -21 -126 9 -160 7
-184 -8 -17 -11 -34 -11 -84 -2 -34 6 -64 10 -66 7 -12 -11 -131 -1 -162 14
-33 16 -41 35 -35 82 4 29 -18 8 -33 -33 -10 -25 -29 -54 -44 -66 -23 -17 -34
-19 -82 -13 -65 9 -64 9 -207 1 -62 -3 -117 -8 -123 -12 -5 -3 -10 -1 -10 4 0
15 -37 13 -85 -3 -36 -13 -42 -12 -67 6 -42 29 -50 52 -53 147 -5 142 37 203
132 187 21 -3 45 -6 53 -5 8 0 52 2 98 3 47 1 87 7 94 14 7 7 31 12 54 12 34
0 44 -4 49 -20 6 -19 55 -30 55 -12 0 4 17 12 37 19 33 10 41 9 65 -9 16 -11
36 -34 45 -51 l16 -32 12 27 c6 15 21 37 33 48 21 20 25 21 171 20 18 0 39 4
45 9 6 4 31 11 56 14 24 3 46 10 48 16 4 12 32 3 32 -11z m5765 -374 c23 -23
31 -25 73 -19 90 12 129 -29 102 -109 -6 -19 -12 -63 -14 -99 -3 -78 -25 -119
-59 -113 -12 3 -28 5 -36 5 -7 1 -11 7 -8 15 3 8 2 30 -4 48 -5 18 -12 53 -15
78 -3 25 -8 48 -11 53 -9 15 -23 6 -29 -18 -5 -21 -11 -24 -28 -19 -11 4 -21
7 -21 8 0 0 -15 22 -33 48 -17 25 -32 57 -32 70 1 26 23 61 33 51 4 -3 9 2 13
11 9 24 39 20 69 -10z m-618 -46 c23 -2 39 0 37 4 -14 22 29 3 61 -27 36 -33
37 -36 40 -117 2 -46 7 -98 10 -117 6 -32 5 -33 -18 -27 -16 4 -27 1 -30 -7
-3 -9 -8 -9 -21 2 -9 8 -15 19 -13 25 2 6 -9 21 -24 33 -15 13 -30 34 -33 48
-4 14 -11 25 -16 25 -10 0 -44 26 -82 63 -24 23 -26 22 -22 -10 4 -38 -1 -42
-38 -29 -43 15 -58 25 -58 38 0 7 4 7 13 0 6 -5 23 -13 37 -17 23 -7 24 -7 10
10 -8 10 -15 25 -15 34 0 9 -10 17 -22 19 -13 2 -23 8 -23 13 0 15 20 10 47
-11 30 -23 52 -16 29 9 -23 25 -20 40 8 47 14 3 27 13 31 21 5 14 9 13 28 -4
12 -12 40 -23 64 -25z m1293 32 c0 -10 82 -6 100 5 5 3 23 -7 40 -23 30 -29
30 -29 30 -144 l0 -115 -32 -29 c-28 -24 -42 -29 -88 -30 -30 -1 -61 4 -68 9
-9 7 -16 7 -20 1 -11 -17 -42 -25 -60 -15 -10 4 -54 4 -102 -1 -54 -6 -86 -6
-88 0 -2 6 -14 6 -32 -1 -24 -9 -32 -8 -51 8 -11 11 -29 19 -39 17 -21 -3 -24
13 -38 166 -9 94 -7 99 65 127 34 14 49 15 75 6 26 -9 47 -8 92 4 52 14 61 14
82 0 26 -17 77 -11 95 11 13 16 39 19 39 4z m-854 -51 c20 -12 52 -47 72 -78
39 -61 106 -232 94 -242 -4 -4 -24 -10 -44 -13 -31 -6 -39 -3 -48 14 -6 11
-19 20 -30 20 -10 0 -22 5 -25 10 -4 6 -10 8 -14 6 -4 -3 -32 -7 -62 -10 -30
-3 -63 -8 -72 -11 -9 -4 -34 1 -57 11 -38 17 -40 20 -38 57 1 21 -3 42 -10 46
-6 4 -14 39 -17 79 -5 57 -3 78 11 101 15 25 22 29 72 30 30 0 58 4 61 7 11
11 71 -5 107 -27z m-4126 -46 c0 -20 3 -21 25 -13 13 5 27 6 29 1 3 -4 19 -6
36 -3 35 5 80 -14 80 -35 0 -7 5 -13 10 -13 21 0 10 -50 -14 -66 -26 -16 -25
-47 0 -37 19 7 18 -12 -1 -31 -9 -8 -11 -17 -6 -21 13 -7 3 -34 -23 -63 -29
-32 -55 -46 -93 -47 -18 -1 -50 -10 -72 -20 -35 -15 -42 -16 -69 -3 -25 13
-36 13 -83 1 -33 -8 -70 -11 -94 -7 -22 4 -72 7 -111 8 -104 1 -107 6 -101
136 3 58 8 112 12 120 7 18 71 60 90 60 8 0 18 -8 24 -17 9 -17 11 -17 24 1
10 13 22 17 41 14 14 -3 29 -1 32 3 3 5 16 9 29 9 13 0 30 7 39 15 12 13 19
13 35 3 16 -10 23 -9 39 5 10 9 33 17 50 17 17 0 37 6 44 14 16 16 28 3 28
-31z m520 28 c0 -5 -48 -47 -107 -94 -60 -46 -121 -97 -138 -113 l-30 -28 -3
44 c-7 92 52 157 131 146 37 -5 47 -2 77 24 34 29 70 39 70 21z m3599 -444
c26 -12 71 -12 71 1 0 13 125 6 147 -8 23 -15 35 -43 27 -64 -7 -17 -65 -46
-94 -47 -61 -1 -114 10 -138 30 -15 12 -37 26 -49 31 -25 10 -32 36 -9 27 25
-10 6 22 -23 39 l-26 15 34 -6 c19 -3 46 -11 60 -18z m946 -107 c6 -5 24 -10
42 -13 44 -7 49 -11 74 -62 12 -25 26 -45 31 -45 4 0 8 -11 8 -25 0 -13 6 -28
13 -32 21 -13 67 -114 67 -148 0 -17 4 -35 9 -40 12 -12 21 -125 10 -125 -4 0
-13 8 -18 18 -8 13 -10 4 -8 -35 1 -29 -1 -51 -4 -50 -15 5 -39 -27 -33 -45 5
-17 3 -18 -14 -9 -30 16 -44 13 -38 -6 3 -10 10 -45 15 -78 12 -76 30 -146 40
-160 12 -15 39 -130 47 -200 4 -33 13 -66 21 -73 11 -11 13 -11 13 2 0 9 7 16
15 16 8 0 15 -4 15 -8 0 -5 16 -16 35 -25 32 -15 40 -27 36 -50 -8 -47 -8
-113 1 -124 12 -15 3 -47 -12 -38 -5 3 -10 -3 -10 -14 0 -12 -6 -20 -12 -18
-7 1 -12 -4 -11 -10 4 -20 -10 -15 -34 11 -12 13 -39 26 -60 30 -49 8 -118 8
-126 0 -3 -4 7 -23 23 -43 17 -19 30 -44 30 -53 0 -10 5 -18 10 -18 14 0 12
-12 -6 -35 -13 -17 -16 -18 -25 -5 -7 11 -8 7 -3 -14 5 -21 4 -27 -5 -22 -6 4
-11 2 -11 -3 0 -6 4 -11 9 -11 14 0 24 -71 12 -83 -8 -8 -11 -6 -11 6 0 9 -11
19 -25 23 -24 6 -37 44 -16 44 20 0 -3 53 -46 106 -18 23 -33 46 -33 52 0 6
-9 16 -20 22 -17 9 -26 7 -51 -14 -23 -20 -37 -24 -57 -20 -15 4 -29 7 -32 6
-24 0 -30 -5 -30 -24 -1 -20 -2 -21 -10 -6 -13 22 -24 111 -22 173 2 28 4 181
6 340 3 160 7 319 10 355 4 36 8 121 10 190 5 141 23 293 40 330 6 14 22 36
36 51 20 20 32 24 60 21 19 -3 40 -8 45 -12z m1491 -407 c-8 -19 24 -29 35
-12 5 8 7 22 5 32 -2 9 1 17 8 17 8 0 11 -10 8 -29 -2 -17 2 -39 11 -51 11
-16 13 -30 7 -51 -6 -20 -5 -29 3 -29 7 0 -3 -9 -21 -20 -40 -25 -42 -25 -42
-1 0 11 -4 23 -10 26 -5 3 -10 2 -10 -3 0 -5 -9 -12 -21 -15 -12 -3 -18 -10
-15 -16 4 -5 2 -12 -4 -16 -5 -3 -10 -1 -10 4 0 20 -19 11 -22 -11 -4 -28 -26
-35 -34 -11 -3 10 -9 25 -13 33 -12 27 -14 140 -2 140 7 0 16 -10 21 -22 5
-13 9 -18 10 -13 1 6 6 1 11 -10 8 -17 8 -15 4 8 -4 20 -1 27 10 27 8 0 15 -4
15 -10 0 -5 4 -10 9 -10 5 0 12 18 16 40 6 34 9 39 21 29 8 -7 13 -18 10 -26z
m1268 -13 c28 10 27 12 30 -55 1 -14 7 -19 21 -18 11 1 14 0 8 -3 -7 -3 -13
-13 -13 -21 0 -8 -20 -35 -45 -60 -25 -24 -45 -41 -45 -36 0 4 -5 2 -12 -5 -7
-7 -22 -12 -35 -12 -22 0 -23 3 -21 65 1 40 6 65 13 65 6 0 17 20 24 45 11 39
16 43 31 35 12 -7 28 -7 44 0z m-956 -90 c16 0 20 -10 26 -62 4 -45 3 -64 -6
-70 -10 -6 -9 -8 2 -8 9 0 11 -3 4 -8 -6 -4 -13 -15 -17 -24 -9 -24 -19 -23
-47 7 -13 14 -20 25 -17 25 4 0 1 16 -7 35 -11 24 -12 44 -6 66 5 17 9 34 8
38 -2 18 4 21 21 11 11 -5 28 -10 39 -10z m-4950 -337 c21 -31 20 -36 -28
-103 -14 -19 -29 -43 -35 -54 -5 -10 -24 -26 -41 -36 -25 -13 -29 -18 -18 -26
11 -7 1 -25 -49 -89 -61 -77 -217 -225 -238 -225 -5 0 -12 8 -15 18 -3 9 -10
26 -16 36 -8 15 -6 22 8 33 10 7 21 13 25 13 4 0 13 15 19 34 6 19 26 50 45
70 18 20 39 51 45 71 6 19 16 35 21 35 5 0 9 7 9 15 0 7 8 19 18 24 9 6 13 11
9 11 -5 0 5 17 21 38 16 20 35 48 42 62 17 31 75 83 103 92 41 12 56 8 75 -19z
m-552 -382 c-9 -10 -16 -25 -16 -34 0 -9 -9 -21 -20 -27 -11 -6 -20 -20 -20
-32 0 -35 -95 -148 -125 -148 -8 0 -20 -10 -26 -22 -12 -23 -69 -82 -69 -71 0
3 -10 -7 -22 -22 -17 -22 -75 -57 -99 -59 -3 -1 -13 -9 -23 -18 -19 -20 -36
-23 -36 -8 0 6 4 10 9 10 5 0 12 14 16 30 4 17 10 30 15 30 5 0 12 10 16 22
10 31 146 170 161 164 9 -4 13 4 13 22 1 64 103 171 168 176 15 1 36 7 47 13
26 15 33 -2 11 -26z m5997 -2056 c15 -14 27 -33 27 -41 0 -11 8 -15 30 -12 22
2 40 -7 75 -35 25 -21 45 -45 45 -53 0 -8 23 -37 50 -63 32 -31 50 -57 50 -72
1 -16 12 -31 32 -44 20 -12 35 -32 40 -52 5 -18 15 -33 22 -33 29 0 35 -63 10
-98 -8 -12 -36 -33 -62 -46 -26 -13 -61 -40 -79 -59 -35 -39 -70 -54 -85 -39
-6 6 -23 9 -37 6 -14 -3 -43 2 -63 10 -34 15 -36 18 -31 48 5 31 3 34 -39 48
-43 15 -43 15 -46 68 -2 28 -7 52 -11 52 -5 0 -11 8 -13 18 -4 13 -16 18 -51
20 -45 1 -47 1 -65 -41 -10 -23 -31 -48 -46 -57 -24 -12 -31 -12 -54 0 -38 22
-44 60 -18 117 13 26 30 54 38 61 9 7 21 26 28 42 15 37 30 39 30 5 0 -14 8
-35 18 -45 18 -19 19 -19 31 30 15 60 24 67 41 35 18 -34 26 -31 37 13 7 30
13 36 31 34 28 -4 28 12 2 78 -25 63 -26 106 -2 119 26 15 35 13 65 -14z
m-677 -111 c3 -27 36 -83 54 -89 17 -5 40 -57 40 -91 0 -16 -32 -42 -61 -49
-21 -5 -30 -2 -43 16 -9 13 -16 35 -16 50 0 33 -8 41 -31 28 -15 -8 -21 -4
-32 18 -24 47 -8 99 36 118 34 15 51 14 53 -1z m-7436 -18 c0 -14 4 -27 9 -30
4 -3 11 -19 14 -35 4 -17 25 -47 48 -68 42 -39 42 -39 45 -124 3 -46 7 -100
10 -119 11 -77 12 -110 3 -110 -5 0 -9 7 -9 15 0 8 -4 15 -10 15 -5 0 -10 7
-10 16 0 8 -4 13 -8 10 -10 -6 -37 29 -84 106 -30 50 -32 60 -35 158 -4 157
-4 170 2 180 11 18 25 10 25 -14z m-1802 -1991 c0 -34 9 -42 25 -21 13 17 52
13 41 -5 -3 -5 -1 -9 5 -9 5 0 13 5 16 10 9 14 43 12 47 -2 5 -14 -42 -66 -63
-70 -8 -2 -17 -7 -21 -13 -5 -6 -11 -6 -19 2 -10 10 -16 8 -30 -8 -15 -18 -18
-18 -33 -4 -29 29 -15 145 18 145 8 0 14 -10 14 -25z m1344 -184 c22 -19 47
-31 59 -29 13 2 43 -17 84 -52 50 -42 65 -61 65 -81 0 -37 15 -46 95 -59 93
-16 139 -45 140 -90 0 -16 25 -18 62 -6 19 6 25 3 33 -18 5 -14 14 -26 19 -26
5 0 16 -16 25 -35 14 -30 20 -34 36 -25 13 7 21 7 26 -1 3 -6 15 -9 25 -6 16
4 19 0 19 -25 0 -25 3 -29 20 -25 25 6 35 -7 16 -22 -14 -12 -10 -61 5 -61 5
0 18 14 31 30 21 29 48 40 48 21 0 -5 9 -13 20 -16 24 -8 26 -28 5 -49 -21
-20 -19 -26 9 -26 13 0 30 10 38 22 14 21 15 21 22 -22 9 -58 15 -65 33 -41
18 26 33 27 26 2 -2 -10 2 -25 11 -33 11 -11 13 -26 9 -52 -4 -29 -2 -36 11
-36 18 0 20 -9 6 -44 -8 -21 -6 -26 11 -31 13 -4 18 -13 15 -23 -3 -9 -8 -44
-11 -77 -6 -64 -47 -231 -64 -263 -6 -11 -25 -22 -42 -26 -65 -13 -77 -8 -110
42 -18 26 -34 49 -36 52 -8 9 -23 -26 -23 -55 0 -16 -9 -45 -21 -64 -11 -19
-16 -37 -11 -40 11 -7 12 -41 0 -41 -4 0 -8 -9 -8 -19 0 -10 -6 -21 -12 -23
-21 -6 -199 -2 -256 6 l-53 8 22 19 c12 10 30 19 39 19 21 0 35 16 43 48 9 38
-36 53 -157 51 -141 -2 -158 -6 -150 -33 11 -37 40 -58 88 -63 52 -6 58 -26
10 -31 -16 -1 -63 -10 -104 -19 -67 -14 -136 -24 -180 -25 -8 0 -98 2 -200 6
-184 6 -185 7 -207 33 -13 14 -23 39 -23 55 0 41 -47 155 -81 199 -32 40 -39
99 -23 173 l9 38 19 -21 c10 -11 22 -18 26 -16 10 6 0 48 -13 57 -7 4 -7 11 1
21 16 18 12 40 -8 49 -10 4 -7 7 11 7 17 1 29 9 37 26 9 19 19 25 45 25 21 0
41 8 52 20 13 14 22 17 34 10 11 -6 22 -3 38 12 20 19 21 23 9 47 -24 47 -29
90 -12 97 23 9 20 19 -9 32 -14 7 -25 18 -24 24 1 7 -1 21 -5 30 -4 9 -3 25 3
36 6 11 8 34 5 50 -12 58 54 137 105 126 14 -4 36 -13 49 -21 30 -18 87 -2 95
28 3 10 19 25 36 32 l30 13 -23 25 c-38 41 -60 91 -57 132 1 20 -2 37 -8 37
-9 0 -25 -30 -23 -42 1 -5 -2 -8 -8 -8 -13 0 -13 43 0 72 17 36 83 30 132 -11z
m7536 -164 c6 -7 11 -22 12 -32 2 -77 18 -165 33 -189 18 -26 18 -28 0 -59
-34 -58 -90 -43 -114 32 -7 20 -19 46 -27 59 -17 26 -12 109 8 153 19 41 68
61 88 36z m-77 -567 c90 -17 196 -75 270 -149 86 -86 128 -172 136 -278 7 -92
-8 -93 -27 -1 -15 74 -65 186 -108 245 -61 82 -186 149 -332 178 -52 10 -58
13 -29 14 20 1 61 -3 90 -9z m-7429 -717 c-12 -2 -27 -13 -32 -24 -6 -10 -17
-19 -25 -19 -8 0 -15 -4 -15 -9 0 -17 -55 -23 -175 -21 -66 1 -136 4 -155 6
-19 1 -54 4 -77 5 -24 2 -40 5 -38 7 3 3 0 11 -6 19 -9 11 4 13 77 13 159 1
388 12 409 21 11 4 29 7 40 7 17 -1 16 -1 -3 -5z m388 -643 c0 -5 -9 -10 -21
-10 -16 0 -20 -5 -17 -27 2 -22 -2 -28 -22 -34 -14 -4 -19 -7 -12 -8 21 -2 3
-21 -19 -21 -11 0 -18 -4 -15 -9 3 -5 -1 -14 -9 -21 -8 -6 -19 -28 -26 -48
-13 -43 -36 -72 -56 -72 -15 0 -31 -36 -38 -84 -2 -17 -4 -33 -6 -36 -1 -3 -1
-8 0 -12 0 -5 -5 -8 -13 -8 -8 0 -27 -11 -42 -24 -27 -23 -28 -25 -15 -64 8
-23 15 -56 16 -74 2 -18 3 -39 4 -46 1 -8 9 -10 26 -6 30 7 32 1 5 -26 -13
-13 -20 -33 -20 -56 0 -24 -4 -33 -12 -28 -6 4 -17 -1 -25 -11 -12 -18 -18
-10 -14 17 2 14 -47 58 -65 59 -11 0 -13 3 -6 6 20 8 14 20 -16 32 -40 17 -65
70 -48 102 7 15 19 23 30 21 23 -4 77 53 70 73 -4 10 0 15 13 15 26 0 43 19
43 47 0 13 5 23 10 23 6 0 10 7 10 15 0 9 11 20 25 25 27 10 33 25 13 33 -8 3
-1 9 15 16 15 6 27 17 27 25 0 8 13 23 30 33 19 11 28 23 25 33 -3 9 13 34 38
60 24 25 52 57 61 73 18 26 56 38 56 17z m-1770 -577 c0 -23 -129 -124 -220
-173 -57 -30 -127 -73 -155 -96 -89 -72 -170 -125 -173 -115 -6 19 38 88 100
153 69 73 134 115 248 160 41 17 84 35 95 42 19 10 81 33 98 35 4 1 7 -2 7 -6z"/>
<path d="M11216 12092 c-2 -4 -4 -106 -4 -227 -1 -121 -3 -246 -5 -277 -3 -37
0 -59 7 -61 6 -3 1 -15 -14 -31 -30 -31 -70 -27 -69 8 0 54 -8 111 -17 116
-13 7 -17 -55 -5 -79 23 -42 -94 -120 -161 -107 -51 10 -135 -12 -142 -38 -8
-31 -7 -104 2 -109 4 -3 31 0 60 6 48 10 58 9 95 -11 53 -28 64 -28 111 4 30
21 43 24 56 16 12 -7 39 -7 92 1 85 12 112 6 103 -22 -3 -10 1 -24 10 -31 8
-7 15 -27 15 -46 0 -18 5 -36 10 -39 6 -3 10 -17 10 -31 0 -15 6 -24 16 -24
11 0 14 -5 9 -17 -4 -10 -11 -33 -15 -51 -9 -35 -41 -76 -73 -94 -13 -6 -41
-6 -86 3 -49 8 -73 9 -88 1 -16 -9 -28 -7 -56 8 -46 25 -59 25 -81 2 -25 -29
-84 -42 -136 -32 -54 11 -66 0 -76 -68 -7 -49 9 -93 51 -132 l22 -20 26 20
c32 26 88 43 100 31 4 -4 29 -4 55 1 26 5 63 10 82 11 31 2 35 -1 38 -25 2
-14 10 -32 18 -38 8 -7 14 -23 14 -35 0 -12 7 -40 16 -60 18 -43 12 -125 -12
-162 -17 -26 -79 -46 -104 -33 -23 12 -79 23 -110 22 -14 -1 -44 3 -67 9 -87
23 -151 -45 -144 -153 2 -35 55 -39 367 -28 165 6 335 11 379 11 112 0 120 4
139 54 16 40 16 45 0 78 -14 29 -21 34 -34 27 -10 -5 -20 -7 -23 -4 -3 3 -20
1 -39 -6 -82 -29 -130 43 -130 196 0 41 16 110 29 130 21 29 90 37 121 13 23
-17 61 -15 74 4 3 6 9 41 13 78 7 69 -2 102 -34 126 -13 9 -16 34 -18 125 -1
62 -4 126 -7 141 -5 23 1 34 31 62 36 33 37 36 37 105 -1 39 -6 76 -13 83 -8
8 -11 8 -11 0 0 -26 -231 -41 -283 -18 -27 12 -30 44 -22 248 10 283 14 330
28 343 4 4 7 13 7 21 0 10 -20 13 -79 13 -44 0 -82 -3 -85 -8z"/>
<path d="M11829 12082 c-4 -15 -3 -113 1 -352 1 -88 -8 -201 -20 -225 -21 -47
-30 -95 -24 -121 8 -33 20 -44 49 -44 30 0 71 -41 79 -77 11 -49 24 -49 45 0
23 53 34 62 51 42 16 -19 30 -19 30 0 0 13 17 20 99 38 47 11 111 -46 111 -98
0 -27 18 -16 30 18 6 17 20 43 30 56 17 20 23 21 36 10 12 -10 17 -10 23 -1 4
7 35 18 69 24 53 10 64 9 87 -6 19 -13 30 -14 39 -7 14 12 20 104 10 158 -7
35 -7 35 -48 29 -22 -4 -43 -11 -46 -15 -3 -5 -30 -8 -60 -7 -30 0 -80 -2
-110 -6 -46 -6 -61 -4 -88 12 l-32 20 1 127 c0 71 7 162 15 203 7 41 16 88 19
104 6 39 31 75 52 75 47 0 186 11 190 15 3 2 21 -1 41 -8 31 -11 38 -10 54 6
10 10 18 25 18 33 0 13 -51 15 -374 15 -348 0 -374 -1 -377 -18z"/>
<path d="M12709 11998 c0 -57 -2 -121 -4 -143 -2 -22 -6 -135 -10 -251 l-7
-211 30 -34 c29 -33 31 -34 64 -20 29 11 50 17 81 20 4 1 7 37 7 81 l0 79 -35
7 c-19 3 -38 11 -41 16 -6 9 -15 92 -14 128 0 28 -1 105 -3 125 0 11 -6 23
-11 27 -8 5 -8 8 -1 8 7 0 11 32 10 85 0 47 4 85 9 85 4 0 5 7 2 16 -3 8 -2
12 4 9 9 -6 70 51 70 66 0 5 -34 9 -75 9 l-75 0 -1 -102z"/>
<path d="M9948 12053 c-15 -4 -16 -18 -11 -136 2 -73 5 -183 6 -244 2 -98 4
-113 19 -113 14 0 16 8 12 45 -3 27 -1 45 5 45 5 0 9 17 7 38 -1 20 1 51 6 67
5 17 12 39 15 50 3 11 6 65 7 120 1 55 5 106 9 113 6 8 2 12 -12 12 -10 0 -25
2 -33 4 -7 2 -21 2 -30 -1z"/>
<path d="M9946 11525 c-4 -14 -4 -30 -1 -35 3 -5 -2 -40 -13 -77 -15 -57 -19
-102 -13 -158 2 -16 110 -10 173 9 53 15 61 15 88 1 16 -8 37 -30 46 -48 9
-17 18 -34 20 -36 4 -5 34 26 34 36 0 4 7 17 15 27 12 16 17 17 30 6 13 -10
18 -11 24 -2 9 16 117 35 148 27 13 -3 33 -21 45 -40 11 -19 23 -35 28 -35 4
0 20 16 34 35 28 36 50 47 40 20 -4 -8 -2 -15 4 -15 21 0 39 118 26 168 l-6
22 -197 -5 c-113 -4 -215 -2 -240 4 -33 7 -56 5 -109 -10 -37 -10 -75 -19 -84
-19 -25 0 -79 56 -72 75 4 8 0 23 -7 32 -12 15 -12 16 4 10 20 -8 23 6 3 22
-11 9 -15 6 -20 -14z"/>
<path d="M12382 11188 c-6 -7 -22 -50 -36 -94 -26 -79 -28 -82 -69 -97 -23 -9
-70 -19 -105 -23 -73 -8 -106 4 -128 48 -17 32 -32 36 -41 11 -3 -10 -15 -28
-26 -41 -15 -16 -23 -19 -28 -10 -7 10 -11 10 -21 0 -6 -6 -21 -12 -32 -12
-17 0 -124 -29 -135 -37 -8 -5 0 -168 9 -178 15 -18 21 -96 9 -111 -5 -7 -13
-38 -16 -68 -5 -45 -3 -56 9 -56 16 0 38 40 38 71 0 11 6 30 14 42 7 12 16 41
20 65 6 41 46 100 46 67 0 -20 22 -19 46 3 12 12 37 19 70 21 57 2 93 -19 119
-70 9 -16 20 -29 25 -29 5 0 21 20 36 45 24 42 27 44 39 28 12 -16 14 -17 32
-1 31 27 96 40 145 28 38 -10 51 -8 98 10 30 12 61 26 67 32 18 14 17 139 0
162 -13 17 -15 17 -45 2 -44 -23 -104 -21 -136 5 -33 26 -33 50 2 113 26 47
32 86 12 86 -4 0 -12 -6 -18 -12z"/>
<path d="M9904 11107 c-4 -10 -3 -55 1 -100 9 -102 9 -117 0 -195 -9 -74 -2
-84 54 -71 20 5 44 9 54 9 24 0 67 -47 67 -74 1 -18 5 -16 37 18 34 37 37 38
50 20 13 -17 14 -17 28 4 19 26 87 46 129 38 39 -8 76 -43 76 -72 0 -39 15
-35 39 10 22 42 23 43 75 43 28 0 62 6 74 12 18 10 25 9 39 -5 15 -15 18 -14
32 13 18 32 19 221 2 264 l-10 24 0 -25 c-1 -37 -28 -70 -57 -70 -13 0 -24 -4
-24 -8 0 -4 -27 -14 -61 -21 -54 -11 -64 -10 -97 6 -29 14 -39 26 -45 56 -11
45 -35 49 -43 7 -4 -16 -10 -30 -15 -30 -5 0 -9 -6 -9 -14 0 -8 -10 -14 -22
-14 -13 1 -50 -7 -83 -16 -49 -14 -67 -15 -101 -6 -23 7 -52 11 -65 10 -13 -1
-26 -1 -29 0 -3 2 -21 3 -40 4 -27 2 -36 7 -38 22 -2 12 4 27 13 34 20 17 19
56 -5 105 -15 33 -20 37 -26 22z"/>
<path d="M12734 11045 c-4 -8 -21 -30 -39 -48 -32 -32 -33 -36 -33 -116 l-1
-84 77 8 c42 5 89 9 105 9 l27 1 0 100 0 101 -32 -4 c-25 -2 -40 3 -60 22 -32
30 -37 31 -44 11z"/>
<path d="M10513 10578 c-6 -18 -17 -54 -24 -80 -11 -39 -17 -47 -31 -42 -10 3
-18 1 -18 -4 0 -19 -49 -41 -106 -47 -54 -6 -62 -5 -89 19 -23 20 -26 26 -13
31 14 5 13 10 -4 43 -10 20 -23 37 -28 36 -27 -3 -30 -5 -30 -22 0 -10 -3 -22
-7 -26 -4 -4 -8 -15 -8 -24 0 -10 -8 -17 -18 -17 -10 0 -24 -8 -31 -18 -7 -9
-23 -17 -35 -17 -27 0 -28 27 0 80 15 29 19 48 13 68 -6 23 -8 24 -12 7 -2
-11 -8 -23 -13 -26 -8 -5 -13 -28 -23 -104 -1 -12 -6 -26 -10 -33 -9 -15 -58
-16 -73 -1 -8 8 -19 7 -40 -3 -25 -12 -28 -19 -31 -65 -2 -42 1 -56 18 -73 22
-22 24 -22 323 -15 296 7 405 11 419 14 19 3 38 63 33 99 -10 62 -23 79 -54
74 -37 -5 -49 12 -55 87 -8 90 -33 118 -53 59z"/>
<path d="M246 9953 c-1 -1 -57 -3 -124 -4 l-122 -1 2 -1082 3 -1081 35 0 c105
-1 124 29 126 200 1 72 4 195 8 275 4 80 9 192 11 250 3 58 7 166 10 240 3 74
7 165 10 201 3 36 8 153 10 260 3 107 7 244 11 304 3 61 7 142 7 182 2 63 5
75 29 100 25 26 33 29 85 26 32 -1 69 -5 83 -7 79 -15 100 -11 92 16 -4 18
-53 91 -78 118 -5 4 -193 7 -198 3z"/>
<path d="M2252 8374 c-13 -9 -30 -13 -38 -10 -8 3 -25 1 -38 -3 l-23 -9 -2
-210 c-1 -152 -5 -222 -16 -258 -31 -101 -14 -287 28 -298 23 -6 57 9 57 25 0
6 10 25 22 42 24 33 29 110 12 192 -11 60 -8 89 20 142 25 49 32 84 46 235 4
48 12 94 19 101 8 11 4 20 -19 40 -35 32 -38 32 -68 11z"/>
<path d="M2534 8125 c-10 -8 -29 -15 -41 -15 -13 0 -23 -5 -23 -11 0 -6 9 -9
19 -6 14 3 18 1 14 -9 -3 -8 0 -20 5 -27 13 -16 -1 -42 -18 -32 -8 5 -11 1 -9
-11 7 -48 -41 -185 -80 -227 -27 -29 -29 -55 -8 -92 14 -23 18 -47 17 -92 0
-18 3 -33 8 -33 17 0 42 37 42 62 0 14 7 31 15 38 8 7 15 19 15 26 0 8 5 14
10 14 6 0 10 5 10 12 0 6 10 22 22 35 15 16 19 26 12 31 -18 11 -16 113 3 158
16 39 18 40 64 41 31 0 50 -5 53 -13 3 -8 11 -14 17 -14 16 0 59 -48 59 -66 0
-7 8 -14 18 -15 10 0 12 -3 5 -6 -10 -3 -10 -10 -2 -24 7 -15 7 -24 -1 -34 -8
-9 -8 -14 0 -17 7 -2 3 -14 -10 -31 -24 -31 -21 -32 48 -15 57 13 68 32 49 82
-15 39 -12 77 10 136 3 8 7 20 8 26 8 37 18 54 31 54 8 0 14 9 14 21 0 28 -19
61 -31 54 -5 -4 -9 -1 -9 6 0 8 -3 9 -9 4 -6 -6 -48 -7 -103 -3 -155 10 -203
9 -224 -7z"/>
<path d="M4820 7939 c-99 -10 -237 -58 -330 -117 -97 -61 -211 -215 -215 -290
-1 -25 -20 -42 -48 -42 -10 0 -15 -4 -12 -10 3 -5 15 -10 26 -10 16 0 19 -7
19 -40 l0 -41 26 26 c18 18 29 23 34 15 4 -6 11 -10 16 -9 15 2 54 -13 54 -21
0 -24 92 -35 205 -24 112 10 264 7 279 -5 8 -7 20 -10 26 -6 5 3 10 2 10 -2 0
-5 21 -10 47 -11 26 -1 51 -6 57 -12 5 -5 24 -10 41 -10 24 0 31 -4 31 -20 0
-22 -12 -27 -19 -7 -4 7 -8 3 -13 -11 -5 -17 -13 -22 -38 -21 -17 0 -47 -2
-66 -6 -53 -10 -136 -6 -170 8 -42 18 -105 25 -112 14 -6 -9 -8 -9 -8 1 0 6
-9 12 -21 12 -19 0 -19 -1 -5 -16 9 -8 14 -20 11 -25 -8 -11 54 -49 80 -49 12
0 26 -5 33 -12 8 -8 73 -13 209 -15 158 -3 215 0 281 13 52 11 82 22 82 30 0
7 6 11 13 8 8 -3 22 6 32 20 10 13 24 22 32 19 8 -3 13 2 13 13 0 9 -3 15 -6
11 -3 -3 -18 -1 -33 5 -14 6 -36 10 -48 9 -13 0 -23 3 -23 7 1 21 21 31 79 35
35 3 68 10 73 15 15 15 12 65 -6 99 -20 40 -20 47 0 39 8 -3 13 -2 9 3 -9 15
6 40 20 35 8 -3 11 -12 8 -20 -4 -10 0 -12 11 -8 12 5 15 2 10 -10 -4 -10 -1
-16 8 -16 9 0 28 -20 44 -46 16 -25 30 -40 32 -34 2 5 8 8 13 4 10 -6 10 -3
14 68 2 32 -1 45 -9 42 -7 -3 -22 6 -34 19 -25 26 -21 57 7 57 13 1 13 2 -3
12 -18 10 -18 12 -2 23 12 9 14 15 5 20 -13 9 -29 -12 -29 -37 0 -10 -7 -18
-15 -18 -8 0 -18 -12 -21 -26 -5 -19 -9 -23 -18 -13 -8 8 -8 13 2 16 17 6 15
23 -3 23 -8 0 -15 5 -15 11 0 6 9 9 20 6 11 -3 20 -1 20 4 0 15 -50 10 -56 -5
-4 -12 -13 -10 -49 7 -24 12 -46 30 -49 40 -2 11 -9 16 -15 12 -6 -3 -11 -2
-11 3 0 17 -39 54 -50 47 -7 -4 -18 2 -26 14 -8 12 -22 21 -30 21 -8 0 -14 5
-14 10 0 6 -11 10 -25 10 -14 0 -25 -5 -25 -11 0 -6 -6 -9 -14 -6 -10 4 -12 0
-8 -15 4 -18 2 -19 -44 -12 -120 20 -306 -17 -404 -80 -19 -12 -43 -25 -53
-29 -9 -4 -20 -15 -24 -24 -3 -10 -13 -26 -21 -35 -21 -24 -6 -23 20 2 24 22
43 26 53 10 3 -5 1 -10 -6 -10 -7 0 -20 -7 -29 -15 -9 -8 -25 -16 -37 -18 -11
-1 -29 -11 -39 -22 -16 -16 -19 -16 -22 -3 -2 11 -15 16 -44 16 -22 1 -45 5
-51 11 -17 17 10 117 39 140 15 12 22 25 18 35 -3 9 -1 16 5 16 6 0 17 13 26
29 8 16 28 39 44 50 27 19 32 20 69 7 22 -8 42 -12 45 -9 3 2 15 -1 27 -7 15
-8 25 -9 29 -2 7 11 80 37 134 47 21 4 45 18 56 31 l18 23 11 -22 c6 -12 11
-16 11 -9 1 6 8 12 16 12 8 0 15 4 15 9 0 5 7 12 16 15 8 3 12 2 9 -4 -3 -6 3
-10 14 -10 10 0 27 -3 37 -7 11 -4 15 -3 11 4 -9 14 30 21 68 12 30 -7 17 -13
-20 -9 -11 1 -17 -1 -13 -6 4 -4 22 -7 40 -6 17 0 46 -5 63 -12 27 -11 35 -11
56 1 15 9 17 12 5 8 -10 -3 -29 1 -42 10 -39 25 -129 44 -247 51 -62 3 -114 7
-117 8 -3 1 -39 -1 -80 -5z"/>
<path d="M13 7753 c-10 -3 -13 -67 -13 -268 l0 -263 313 -6 c171 -3 503 -8
737 -11 234 -3 437 -8 451 -11 14 -3 33 -18 43 -35 l18 -31 27 26 c25 24 34
26 117 26 140 0 130 -10 138 141 9 166 3 181 -74 191 -30 4 -77 11 -105 17
-88 19 -290 49 -301 44 -6 -2 -57 1 -112 6 l-101 11 -91 -35 c-102 -39 -146
-39 -209 -3 -19 10 -75 35 -125 55 -50 19 -96 39 -102 44 -31 25 -136 51 -224
55 -209 10 -247 12 -302 19 -32 4 -58 11 -58 16 0 5 7 6 15 3 8 -4 15 -1 15 5
0 11 -34 14 -57 4z"/>
<path d="M6980 7685 c-14 -8 -35 -14 -47 -15 -14 0 -23 -6 -23 -15 0 -9 -9
-15 -24 -15 -13 0 -29 -7 -36 -15 -7 -9 -18 -14 -25 -11 -6 2 -22 -5 -36 -15
-13 -10 -29 -19 -35 -19 -7 0 -15 -8 -19 -17 -6 -17 -7 -17 -20 0 -10 13 -14
14 -18 4 -9 -23 4 -65 22 -70 20 -5 21 -31 4 -63 -28 -51 7 -106 76 -119 19
-4 40 -13 48 -21 8 -8 23 -14 34 -14 10 0 19 -5 19 -10 0 -7 -30 -8 -85 -5
-57 4 -85 3 -85 -4 0 -6 7 -11 15 -11 13 0 17 -6 14 -26 -2 -16 179 -93 203
-86 4 1 20 -3 35 -10 31 -13 35 -13 153 -24 102 -8 98 -9 185 1 85 9 147 33
142 55 -2 8 -8 14 -13 13 -6 -1 -28 2 -49 7 -21 5 -43 6 -49 3 -13 -8 -70 -8
-83 0 -5 3 -29 8 -51 9 -23 2 -42 6 -42 11 0 4 -5 7 -11 7 -5 0 -7 -4 -4 -10
3 -5 1 -10 -4 -10 -6 0 -11 11 -11 24 0 14 -4 28 -10 31 -5 3 -10 11 -10 17 0
7 6 6 15 -2 10 -9 15 -9 15 -1 0 6 7 11 15 11 9 0 26 6 38 14 12 8 33 16 47
18 14 2 34 13 45 25 18 20 27 22 105 18 253 -13 334 -11 328 7 -2 5 -72 38
-157 73 -84 35 -160 70 -170 79 -10 9 -24 16 -31 16 -7 0 -21 6 -29 13 -27 23
-120 47 -180 47 l-56 0 33 17 c34 17 28 35 -9 26 -27 -8 -23 16 5 26 23 10
123 0 201 -18 52 -13 55 -7 8 12 -34 13 -173 34 -246 36 -15 0 -37 5 -47 11
-26 14 -60 12 -90 -5z"/>
<path d="M5825 7217 c-15 -17 -84 -150 -136 -259 -17 -38 -34 -68 -38 -68 -8
0 -77 -107 -106 -164 -20 -39 -218 -215 -242 -216 -7 0 -13 -7 -13 -15 0 -8
-6 -15 -14 -15 -8 0 -17 -7 -20 -16 -9 -24 -7 -154 3 -154 5 0 32 -22 61 -50
29 -27 57 -50 62 -50 5 0 11 -6 14 -14 3 -8 16 -17 29 -20 18 -5 22 -11 18
-23 -4 -10 -2 -14 5 -9 6 3 13 2 17 -4 3 -5 13 -10 21 -10 8 0 24 -8 35 -19
29 -27 170 -43 184 -21 3 6 15 10 27 10 17 0 18 2 8 15 -22 27 -2 16 35 -19
l37 -35 -21 -22 c-22 -23 -27 -38 -13 -40 44 -4 88 -39 79 -63 -8 -20 53 -52
64 -35 4 7 14 9 23 6 8 -3 18 -2 21 3 4 6 1 10 -4 10 -6 0 -11 5 -11 10 0 13
32 9 42 -5 5 -6 8 -5 8 3 0 10 5 10 23 1 20 -11 21 -11 8 4 -11 15 -11 17 1
17 9 0 24 -11 34 -25 10 -14 24 -25 31 -25 16 0 78 57 78 73 0 6 8 11 18 9 11
-2 15 2 11 13 -4 10 0 15 11 15 13 0 9 7 -14 27 -17 15 -31 33 -31 41 0 7 -5
10 -11 6 -7 -4 -10 -1 -7 7 5 14 35 19 116 20 23 1 42 4 42 9 0 4 9 6 20 3 11
-3 20 -10 20 -15 0 -13 63 -38 75 -28 6 4 34 13 64 19 61 13 121 39 121 52 0
5 10 9 22 9 12 0 19 3 16 6 -4 3 1 14 10 23 9 10 23 27 31 38 7 11 29 26 48
34 25 10 33 18 30 31 -3 10 -1 18 5 18 6 0 8 6 5 14 -3 8 0 20 8 26 10 8 14 8
18 -2 3 -7 6 5 6 27 1 23 -7 53 -19 73 l-20 32 23 0 22 1 -23 19 c-22 18 -103
40 -169 46 -38 3 -42 -11 -14 -48 49 -61 71 -188 44 -245 -19 -40 -34 -53 -69
-59 -15 -3 -31 -7 -36 -10 -4 -3 -8 0 -8 5 0 6 -6 11 -14 11 -8 0 -16 6 -19
13 -8 23 -72 47 -121 47 -27 0 -67 -10 -98 -24 -57 -26 -122 -71 -124 -86 -1
-6 -3 -12 -4 -15 -1 -3 -3 -8 -4 -12 -8 -39 -72 -75 -114 -64 -15 4 -45 6 -68
3 -54 -5 -110 27 -163 95 -52 66 -124 105 -192 105 -57 -1 -89 -16 -89 -42 0
-29 -16 -32 -57 -11 -62 31 -78 55 -76 114 2 61 4 68 27 125 19 45 95 119 158
155 24 14 36 27 33 36 -3 8 1 23 8 35 7 12 19 41 26 65 11 37 68 156 118 246
9 16 42 117 48 145 1 3 10 22 20 43 19 37 11 69 -10 44z"/>
<path d="M1517 6971 c-17 -30 -71 -61 -104 -61 -10 0 -24 -5 -31 -12 -9 -9
-12 -9 -12 0 0 8 -32 11 -115 8 -64 -1 -118 0 -120 4 -3 5 -216 6 -247 1 -5 0
-8 -6 -8 -12 0 -7 9 -9 23 -6 32 8 118 -17 133 -38 8 -10 14 -15 14 -11 0 5 7
3 15 -4 11 -9 19 -7 40 13 31 28 86 33 158 15 42 -11 48 -10 60 7 10 12 19 15
28 9 8 -4 29 -9 47 -10 17 0 35 -4 39 -8 12 -12 10 -111 -4 -212 -8 -55 -12
-124 -10 -154 2 -30 -2 -78 -9 -107 -7 -28 -15 -73 -18 -100 -3 -26 -6 -50 -6
-53 -1 -3 -1 -17 0 -32 1 -16 -4 -28 -10 -28 -8 0 -10 -9 -6 -24 4 -16 1 -26
-8 -29 -18 -7 -36 12 -29 31 4 10 2 13 -5 8 -6 -3 -13 -2 -17 4 -10 16 -25 12
-18 -5 3 -9 2 -15 -3 -14 -23 4 -34 -3 -34 -20 0 -11 6 -22 13 -24 6 -3 2 -6
-10 -6 -16 -1 -21 -6 -17 -16 6 -14 -12 -21 -40 -16 -5 1 -6 -12 -3 -29 l7
-30 -33 17 c-25 13 -28 18 -14 21 9 2 17 10 17 18 0 11 -6 13 -20 9 -19 -6
-20 -3 -17 29 2 19 1 33 -3 31 -11 -7 -2 242 10 264 7 14 6 21 -2 23 -9 3 -8
10 5 22 9 10 17 26 17 35 0 10 7 24 15 31 22 18 19 36 -14 83 -15 23 -31 52
-35 65 -4 12 -11 20 -16 17 -4 -3 -11 13 -15 35 -6 34 -11 40 -31 40 -17 0
-22 -4 -18 -15 4 -8 1 -15 -5 -15 -6 0 -11 -8 -11 -19 0 -10 -6 -31 -14 -46
-8 -15 -12 -34 -9 -43 4 -8 -2 -21 -11 -28 -16 -11 -17 -21 -9 -83 8 -60 6
-83 -14 -163 -13 -51 -24 -109 -24 -128 -1 -19 -5 -40 -10 -47 -10 -11 -2 -62
10 -64 3 -1 26 -2 51 -4 37 -1 52 -9 83 -38 39 -39 47 -53 23 -44 -11 4 -13 1
-9 -10 5 -13 0 -14 -28 -8 -18 4 -44 15 -57 23 -20 13 -25 13 -32 2 -7 -11
-11 -10 -25 3 -9 10 -25 17 -36 17 -11 0 -17 5 -14 10 3 6 -1 10 -9 10 -9 0
-15 3 -14 8 5 14 -70 80 -112 99 -8 4 -19 12 -25 18 -23 27 -41 23 -62 -16
-12 -22 -16 -36 -10 -33 9 5 9 4 2 -4 -10 -11 -53 -21 -100 -24 -11 -1 -23 -7
-27 -12 -5 -7 -11 -7 -20 2 -16 16 -28 15 -28 -2 0 -8 -5 -18 -11 -22 -7 -4
-10 1 -7 12 2 12 -5 23 -17 29 -19 10 -22 19 -26 92 -1 18 -6 30 -11 27 -4 -3
-8 14 -7 38 1 24 -2 83 -6 132 -5 51 -4 91 1 95 17 11 33 59 27 80 -3 13 -1
21 7 21 10 0 10 3 0 15 -10 12 -10 18 -1 29 10 12 9 17 -6 25 -10 5 -34 19
-53 29 -32 18 -35 23 -33 58 4 61 7 73 16 71 5 -1 11 7 13 18 3 21 32 47 45
40 4 -3 10 -1 14 5 8 13 45 13 45 0 0 -14 27 -12 34 3 3 6 3 2 0 -10 -4 -19
-1 -23 17 -23 13 0 33 -10 46 -22 20 -19 26 -20 50 -8 16 7 34 12 41 11 7 -1
19 5 28 14 8 8 24 15 34 15 10 0 21 4 24 9 4 5 21 7 39 4 17 -3 29 -2 25 3 -4
4 0 13 10 20 14 11 -12 13 -158 12 -96 0 -291 3 -433 6 l-257 7 0 -206 c0
-198 1 -205 20 -205 11 0 20 -7 20 -15 0 -8 5 -24 12 -34 15 -24 -7 -106 -34
-125 -17 -12 -18 -26 -16 -156 l3 -143 95 -40 c227 -95 169 -84 520 -91 173
-4 383 -9 465 -11 489 -15 723 -17 729 -7 3 6 1 23 -5 39 -13 35 -13 176 1
238 6 26 10 79 9 118 0 40 0 193 1 340 l2 269 -24 -7 c-31 -10 -30 -7 -17 -44
7 -20 9 -50 4 -79 -4 -26 -8 -57 -7 -69 0 -13 -5 -20 -10 -17 -6 4 -7 -2 -3
-16 4 -13 3 -20 -2 -17 -11 7 -37 -58 -29 -71 3 -5 -7 -15 -22 -21 -24 -11
-25 -14 -9 -22 9 -6 17 -17 17 -24 0 -21 -4 -19 -40 17 -20 19 -30 38 -27 49
3 10 0 20 -7 23 -6 2 -4 5 5 5 9 1 19 7 22 15 4 10 0 12 -15 8 -18 -4 -19 -2
-9 16 8 15 8 21 -3 25 -14 6 -28 104 -18 122 4 6 7 12 8 15 4 23 19 40 36 40
11 0 16 4 12 11 -4 8 1 9 16 4 32 -10 70 -13 70 -6 0 4 -34 14 -75 24 -82 19
-121 45 -130 88 -8 37 -26 37 -48 0z"/>
<path d="M7190 5857 c0 -14 5 -29 10 -32 6 -3 10 -14 10 -23 0 -10 9 -23 20
-30 11 -7 20 -18 20 -25 0 -18 70 -88 81 -82 5 4 9 15 9 26 0 11 3 18 8 16 4
-3 8 11 8 31 1 30 -5 43 -34 70 -19 18 -47 35 -61 39 -14 3 -36 13 -48 21 -22
14 -23 13 -23 -11z"/>
<path d="M5726 5761 c-4 -6 -18 -11 -31 -11 -28 0 -76 -20 -71 -29 3 -3 -21
-8 -52 -9 -31 -2 -72 -10 -91 -18 -20 -9 -59 -19 -87 -24 -28 -5 -75 -20 -104
-34 -29 -14 -67 -25 -84 -24 -62 2 -121 -40 -140 -100 -8 -25 12 -52 38 -52 9
0 16 -6 16 -13 0 -14 55 -71 63 -65 3 1 41 -30 85 -70 44 -41 89 -80 99 -87
11 -7 32 -32 48 -54 18 -28 33 -40 44 -36 9 2 37 -2 64 -10 26 -8 54 -12 63
-8 10 4 18 -4 27 -26 7 -19 22 -34 39 -40 15 -6 28 -15 28 -21 0 -6 5 -8 11
-5 5 4 28 -5 50 -20 38 -24 42 -25 53 -10 11 15 14 15 27 3 20 -19 71 -22 94
-4 15 12 16 15 5 16 -8 0 -20 8 -27 19 -11 17 -63 36 -63 22 0 -4 -16 -5 -35
-3 -38 4 -43 15 -21 38 19 18 30 18 22 -1 -3 -8 -2 -15 3 -15 5 0 12 10 15 23
l7 22 9 -22 c10 -25 30 -31 30 -9 0 7 7 19 15 26 11 9 12 16 5 25 -8 9 -8 15
0 20 14 9 82 4 97 -8 7 -5 20 -4 32 2 11 6 38 11 60 11 22 0 43 5 47 11 3 6
15 9 25 6 10 -3 38 1 62 8 25 8 50 10 57 5 8 -5 19 -6 24 -2 19 11 190 24 311
23 94 -1 160 20 212 68 67 60 132 111 142 111 7 0 9 5 6 11 -4 5 10 3 30 -5
35 -15 38 -15 65 7 16 12 29 28 29 35 1 6 7 12 15 12 7 0 18 6 24 13 6 7 34
19 61 27 56 15 72 36 75 98 2 40 1 41 -26 35 -15 -3 -28 -2 -28 3 0 13 -53 69
-68 72 -8 1 -11 -2 -7 -8 8 -13 -25 -26 -34 -14 -9 13 -91 10 -99 -3 -4 -7
-19 -13 -33 -15 -14 -2 -40 -18 -57 -36 -18 -18 -36 -31 -40 -28 -4 2 -32 7
-62 10 -30 4 -66 11 -80 16 -14 6 -52 14 -85 19 -33 6 -80 15 -105 21 -25 7
-58 12 -75 13 -16 1 -39 10 -50 20 -13 12 -33 17 -65 16 -25 -1 -55 3 -68 9
-12 7 -31 17 -42 22 -11 6 -31 8 -45 4 -14 -3 -25 -2 -25 4 0 11 -49 4 -66
-10 -7 -5 -32 -4 -60 1 -27 6 -92 12 -144 15 -52 3 -109 8 -126 11 -19 4 -34
3 -38 -4z m-188 -240 l37 -39 33 29 c31 28 82 40 82 19 0 -6 11 -15 24 -22 22
-9 28 -7 49 17 44 52 150 40 209 -23 l37 -40 23 25 c36 39 72 53 137 53 53 0
62 -3 84 -29 l24 -30 34 35 c53 54 116 46 154 -20 9 -17 12 -16 37 3 82 65
137 -33 72 -129 -27 -41 -34 -45 -74 -48 -57 -4 -75 -18 -54 -40 14 -14 14
-16 0 -24 -17 -10 -56 6 -56 22 0 6 -25 10 -55 10 -40 0 -55 -4 -55 -14 0 -18
-16 -24 -65 -22 -22 1 -70 3 -107 4 -46 1 -72 7 -83 18 -15 15 -18 15 -36 -2
-18 -16 -39 -19 -130 -20 -59 -1 -107 3 -106 8 1 5 -24 10 -56 13 -66 4 -82
14 -103 63 -14 34 -14 34 -39 18 -40 -27 -54 -20 -80 38 -39 88 -33 166 12
166 7 0 31 -18 51 -39z"/>
<path d="M7169 4203 c-1 -5 -1 -11 0 -15 0 -4 -12 -5 -28 -2 -20 4 -30 1 -34
-10 -4 -11 -19 -16 -47 -16 -28 0 -40 -4 -40 -14 0 -16 -49 -35 -102 -40 -19
-2 -40 -6 -47 -10 -7 -4 -18 -2 -26 4 -14 11 -67 9 -150 -7 -11 -2 -32 -5 -46
-7 -38 -5 -69 -16 -69 -24 0 -4 -20 -6 -44 -4 -24 2 -54 -2 -67 -9 -23 -12
-38 -16 -85 -23 -11 -1 -25 -5 -31 -9 -6 -4 -13 -1 -16 5 -3 10 -7 10 -19 0
-9 -7 -36 -14 -60 -16 -23 -2 -54 -6 -68 -10 -14 -4 -37 -3 -51 2 -18 7 -30 6
-43 -4 -11 -7 -23 -11 -28 -8 -5 3 -15 1 -23 -6 -10 -9 -20 -7 -40 6 -26 17
-28 17 -37 1 -5 -10 -14 -15 -19 -11 -5 3 -16 0 -24 -6 -9 -7 -15 -8 -15 -3 0
6 -30 10 -72 9 -54 -1 -72 -5 -76 -16 -4 -12 -2 -13 9 -2 7 6 18 12 24 12 5 0
1 -7 -9 -15 -21 -16 -32 -55 -16 -55 6 0 9 -6 7 -12 -1 -7 7 -13 18 -13 11 -1
27 -5 35 -10 8 -5 22 -8 32 -7 9 2 19 -2 23 -8 3 -5 22 -10 42 -10 20 0 34 -3
30 -6 -3 -4 1 -13 9 -22 11 -11 18 -12 23 -4 4 7 22 9 46 5 22 -3 51 -6 65 -7
14 0 31 -7 39 -14 11 -10 16 -11 21 -1 4 6 13 8 19 5 6 -4 11 0 12 11 0 14 2
15 7 3 9 -19 32 -24 32 -6 0 11 33 15 50 6 3 -2 25 -4 49 -5 30 -1 48 -7 58
-20 13 -19 14 -18 9 10 -4 17 -3 24 0 18 8 -17 33 -16 40 1 3 8 12 12 21 9 13
-5 13 -3 4 15 -14 26 3 30 18 5 5 -10 13 -15 17 -11 4 5 13 3 21 -3 10 -9 13
-8 13 4 0 11 6 14 15 11 11 -5 13 -2 8 12 -4 11 -3 15 5 10 6 -3 28 2 48 13
23 12 47 18 61 15 18 -5 25 -1 32 19 11 28 31 45 31 26 0 -8 4 -8 15 1 9 8 15
8 15 2 0 -22 37 -18 93 10 49 24 61 27 74 16 14 -11 15 -10 9 10 -7 20 -5 22
18 18 14 -2 26 0 28 6 2 5 15 11 30 11 19 2 25 7 22 20 -1 10 1 15 5 12 5 -3
12 3 15 12 5 12 9 14 18 5 17 -17 25 -15 31 8 3 11 12 20 21 20 9 0 16 4 16 9
0 5 9 11 20 14 17 4 19 11 14 31 -7 28 -2 31 26 16 13 -7 19 -6 23 5 4 8 -2
16 -14 20 -10 4 -17 11 -14 16 4 5 -1 9 -9 9 -9 0 -17 -3 -17 -7z"/>
<path d="M12510 1220 c0 -11 -4 -20 -9 -20 -10 0 -2 -90 9 -105 4 -5 10 -26
14 -45 8 -41 41 -84 57 -75 6 4 8 18 5 31 -5 17 -1 26 14 34 11 6 20 17 20 25
0 18 -34 37 -53 29 -8 -3 -18 -1 -22 5 -4 7 7 11 29 11 42 0 45 11 14 45 -34
36 -43 48 -51 68 -9 23 -27 22 -27 -3z"/>
<path d="M6875 1211 c-8 -13 3 -33 15 -26 4 3 11 -2 14 -11 10 -26 7 -28 -13
-10 -32 29 -56 17 -56 -27 0 -20 2 -37 6 -37 17 0 4 -71 -22 -119 -16 -30 -29
-64 -28 -75 0 -12 3 -15 6 -9 8 20 60 73 72 73 6 0 8 7 5 15 -4 8 1 17 10 21
9 3 16 14 16 23 0 9 4 21 9 27 5 5 11 29 13 54 4 36 0 53 -17 79 -14 19 -26
28 -30 22z"/>
<path d="M12740 805 c-14 -8 -33 -14 -42 -15 -20 0 -23 -22 -8 -51 9 -15 7
-21 -5 -25 -9 -4 -14 -12 -11 -20 3 -7 -2 -18 -9 -24 -8 -7 -12 -17 -8 -24 4
-6 8 -15 8 -21 0 -5 12 -11 28 -13 37 -5 34 -22 -4 -22 -20 0 -39 8 -50 22
-11 11 -19 17 -19 12 -1 -24 -20 25 -20 50 0 24 -2 26 -15 16 -8 -6 -23 -9
-35 -5 -29 9 -26 -20 5 -49 14 -13 28 -38 31 -57 4 -19 15 -48 25 -65 10 -17
16 -39 13 -51 -4 -12 0 -35 8 -51 8 -16 13 -43 10 -61 -2 -19 0 -31 7 -31 6 0
11 -12 11 -26 0 -36 22 -26 34 16 7 25 7 35 -2 38 -14 4 -16 32 -2 32 6 0 10
9 10 20 0 11 -5 20 -12 20 -6 0 -8 3 -5 7 4 3 17 -3 28 -16 13 -14 27 -20 39
-16 24 8 60 -58 60 -110 0 -19 5 -35 10 -35 6 0 10 -7 10 -15 0 -8 6 -15 13
-15 8 0 9 -3 1 -8 -18 -12 -23 -50 -8 -63 8 -6 14 -18 14 -25 0 -8 5 -14 10
-14 6 0 10 67 10 180 0 137 -3 180 -12 180 -10 0 -10 2 0 9 19 12 15 238 -4
245 -8 3 -14 11 -14 19 0 10 -65 78 -73 77 -1 -1 -13 -7 -27 -15z"/>
</g>
</svg>
