<?xml version="1.0" standalone="no"?>
<!DOCTYPE svg PUBLIC "-//W3C//DTD SVG 20010904//EN"
 "http://www.w3.org/TR/2001/REC-SVG-20010904/DTD/svg10.dtd">
<svg version="1.0" xmlns="http://www.w3.org/2000/svg"
 width="500.000000pt" height="500.000000pt" viewBox="0 0 500.000000 500.000000"
 preserveAspectRatio="xMidYMid meet">
<metadata>
Created by potrace 1.15, written by Peter Selinger 2001-2017
</metadata>
<g transform="translate(0.000000,500.000000) scale(0.100000,-0.100000)"
fill="#000000" stroke="none">
<path d="M0 2500 l0 -2500 2500 0 2500 0 0 2500 0 2500 -2500 0 -2500 0 0
-2500z m4410 0 l0 -1910 -1910 0 -1910 0 0 1910 0 1910 1910 0 1910 0 0 -1910z"/>
<path d="M702 2498 l3 -1793 1798 -3 1797 -2 0 1795 0 1795 -1800 0 -1800 0 2
-1792z m498 -78 c0 -68 -14 -80 -24 -21 -7 45 -36 71 -78 71 l-28 0 0 -184 0
-184 28 -10 c22 -8 9 -10 -63 -11 -86 0 -89 0 -57 14 l32 14 0 181 0 180 -24
0 c-44 0 -75 -18 -81 -47 -15 -66 -24 -68 -24 -5 l-1 62 160 0 160 0 0 -60z
m205 -61 c17 -17 20 -35 24 -140 3 -113 4 -120 22 -116 23 6 26 -8 3 -17 -32
-12 -63 -6 -75 15 -6 12 -14 17 -18 12 -23 -36 -101 -43 -131 -13 -46 46 -18
96 75 135 l65 28 0 42 c0 49 -13 65 -55 65 -39 0 -47 -7 -33 -30 15 -23 3 -50
-21 -50 -32 0 -44 34 -23 60 34 42 128 47 167 9z m321 -4 l22 -24 18 21 c28
31 62 40 99 28 45 -15 55 -45 55 -169 0 -102 1 -109 23 -119 18 -9 10 -11 -48
-11 -52 0 -66 2 -52 10 15 9 17 26 17 134 0 108 -2 125 -17 133 -23 12 -57 -1
-77 -30 -12 -17 -16 -47 -16 -124 0 -95 1 -102 23 -112 18 -9 8 -11 -53 -11
-61 0 -71 2 -52 11 21 11 22 16 22 134 0 113 -2 124 -20 134 -31 16 -72 -8
-87 -50 -7 -19 -12 -72 -12 -117 -1 -74 1 -83 21 -97 21 -15 19 -16 -47 -16
-66 0 -68 1 -47 16 20 14 22 23 22 124 0 117 -4 140 -26 140 -8 0 -14 5 -14
10 0 6 20 10 45 10 42 0 45 -2 45 -27 l0 -27 28 26 c15 14 34 28 42 31 26 10
64 -3 86 -28z m503 11 c11 -8 15 -8 18 2 10 27 23 9 23 -31 0 -60 -9 -63 -34
-14 -16 32 -28 43 -49 45 -35 4 -57 -13 -57 -44 0 -17 15 -34 59 -64 33 -22
67 -50 75 -62 48 -68 -16 -142 -107 -124 -17 4 -42 7 -54 8 -21 0 -23 5 -23
54 0 30 4 54 8 54 4 0 13 -20 20 -45 9 -35 19 -48 39 -56 50 -19 98 25 74 68
-5 10 -33 36 -63 58 -29 23 -60 53 -68 68 -13 24 -13 30 0 54 28 50 96 64 139
29z m721 -585 c0 -206 0 -210 22 -225 21 -15 15 -16 -90 -15 -102 1 -114 3
-123 22 -6 11 -14 15 -18 10 -23 -36 -101 -43 -131 -13 -46 46 -18 96 75 135
l65 28 0 42 c0 49 -13 65 -55 65 -39 0 -47 -7 -33 -30 6 -9 8 -25 5 -34 -9
-22 -44 -20 -57 3 -22 41 61 88 131 74 54 -11 64 -33 68 -165 3 -111 5 -119
22 -115 10 3 19 1 21 -5 6 -16 36 2 42 25 8 29 8 306 0 345 -4 19 -15 34 -28
39 -17 6 -12 9 24 14 25 3 48 7 53 7 4 1 7 -92 7 -207z m-1830 40 c65 -46 60
-203 -8 -264 -26 -23 -92 -33 -121 -18 -20 11 -21 10 -21 -28 0 -34 5 -43 28
-55 26 -15 24 -15 -47 -16 -67 0 -73 1 -55 14 17 13 19 29 22 147 5 168 -2
213 -31 227 -19 9 -14 11 31 11 47 1 52 -1 52 -21 l0 -21 23 20 c38 36 80 37
127 4z m288 -5 c14 -14 26 -40 29 -64 l6 -42 -86 0 c-48 0 -89 -5 -92 -10 -14
-22 8 -94 37 -123 24 -24 34 -28 61 -23 18 3 42 17 55 32 14 16 22 20 22 10 0
-8 -14 -26 -32 -41 -28 -24 -39 -27 -81 -22 -71 6 -109 46 -115 121 -6 78 4
121 38 155 47 46 114 49 158 7z m280 18 c26 -18 28 -37 7 -58 -28 -27 -69 10
-44 40 9 11 7 14 -9 14 -12 0 -30 -14 -43 -32 -19 -26 -24 -48 -27 -124 l-4
-93 33 -20 34 -21 -80 0 c-75 0 -78 1 -57 16 21 14 22 23 22 129 0 105 -2 116
-22 135 l-22 20 47 0 c44 0 47 -2 47 -26 l0 -26 35 31 c41 35 52 37 83 15z
m191 -8 c11 -8 15 -8 18 2 10 27 23 9 23 -31 0 -60 -9 -63 -34 -14 -16 32 -28
43 -49 45 -35 4 -57 -13 -57 -44 0 -17 15 -34 59 -64 33 -22 67 -50 75 -62 48
-68 -16 -142 -107 -124 -17 4 -42 7 -54 8 -21 0 -23 5 -23 54 0 30 4 54 8 54
4 0 13 -20 20 -45 9 -35 19 -48 39 -56 50 -19 98 25 74 68 -5 10 -33 36 -63
58 -29 23 -60 53 -68 68 -13 24 -13 30 0 54 28 50 96 64 139 29z m288 -2 c85
-54 80 -234 -8 -279 -49 -26 -113 -15 -153 24 -28 29 -31 37 -34 109 -3 68 -1
81 20 112 38 57 116 72 175 34z m346 -6 c14 -17 17 -40 17 -134 0 -105 1 -114
22 -128 21 -15 19 -16 -47 -16 -66 0 -68 1 -47 16 20 14 22 23 22 125 0 95 -3
112 -20 129 -16 16 -24 18 -51 8 -43 -15 -59 -58 -59 -162 0 -76 2 -86 22
-100 21 -15 19 -16 -47 -16 -66 0 -68 1 -47 16 20 14 22 23 22 124 0 117 -4
140 -26 140 -8 0 -14 5 -14 10 0 6 20 10 45 10 42 0 45 -2 45 -27 l0 -27 28
26 c15 14 34 28 42 31 26 10 74 -4 93 -25z m-853 -465 l0 -96 23 20 c32 30 61
36 101 19 57 -24 86 -110 67 -196 -19 -87 -115 -139 -177 -95 -19 12 -24 12
-40 0 -11 -8 -22 -15 -26 -15 -5 0 -8 96 -8 214 0 214 0 215 -22 223 -19 6
-16 9 22 14 25 3 48 7 53 7 4 1 7 -42 7 -95z m720 -13 l0 -40 43 -2 42 -1 -42
-4 -43 -4 0 -128 c0 -105 3 -131 16 -142 19 -16 44 -3 59 29 9 20 25 30 25 17
0 -16 -31 -63 -45 -69 -31 -12 -65 -6 -85 14 -18 18 -20 33 -20 150 l0 130
-32 2 -33 1 33 4 c30 4 32 7 32 44 0 35 3 39 25 39 23 0 25 -4 25 -40z m-872
-64 c14 -14 26 -40 29 -64 l6 -42 -86 0 c-48 0 -89 -5 -92 -10 -14 -22 8 -94
37 -123 24 -24 34 -28 61 -23 18 3 42 17 55 32 14 16 22 20 22 10 0 -8 -14
-26 -32 -41 -28 -24 -39 -27 -81 -22 -71 6 -109 46 -115 121 -6 78 4 121 38
155 47 46 114 49 158 7z m541 10 c11 -8 15 -8 18 2 10 27 23 9 23 -31 0 -60
-9 -63 -34 -14 -16 32 -28 43 -49 45 -35 4 -57 -13 -57 -44 0 -17 15 -34 59
-64 33 -22 67 -50 75 -62 48 -68 -16 -142 -107 -124 -17 4 -42 7 -54 8 -21 0
-23 5 -23 54 0 30 4 54 8 54 4 0 13 -20 20 -45 9 -35 19 -48 39 -56 50 -19 98
25 74 68 -5 10 -33 36 -63 58 -29 23 -60 53 -68 68 -13 24 -13 30 0 54 28 50
96 64 139 29z m181 -259 c3 -2 14 -9 25 -15 16 -9 6 -11 -55 -12 -70 0 -73 1
-52 16 21 14 22 23 22 130 0 103 -2 116 -20 132 -21 17 -20 17 22 22 l43 5 5
-137 c3 -75 7 -138 10 -141z m458 249 c14 -14 26 -40 29 -64 l6 -42 -86 0
c-48 0 -89 -5 -92 -10 -14 -22 8 -94 37 -123 24 -24 34 -28 61 -23 18 3 42 17
55 32 14 16 22 20 22 10 0 -8 -14 -26 -32 -41 -28 -24 -39 -27 -81 -22 -71 6
-109 46 -115 121 -6 78 4 121 38 155 47 46 114 49 158 7z m-1715 17 c-16 -3
-23 -12 -23 -26 0 -35 51 -180 60 -170 5 4 24 51 43 102 18 52 38 96 43 98 5
2 22 -32 38 -74 16 -43 36 -94 44 -112 l14 -35 29 90 c35 107 35 108 7 122
-20 9 -16 11 27 11 41 0 47 -2 34 -12 -9 -7 -36 -72 -60 -145 -25 -74 -49
-134 -54 -135 -5 -1 -21 30 -36 68 -14 39 -34 88 -44 110 l-17 40 -40 -112
c-22 -62 -43 -113 -47 -113 -3 0 -21 44 -40 98 -28 80 -57 151 -79 195 -2 4
25 6 60 6 35 -1 53 -4 41 -6z"/>
<path d="M1012 1824 c-29 -13 -42 -63 -42 -158 0 -91 1 -96 25 -112 32 -21 69
-12 92 22 25 39 29 169 6 214 -18 34 -48 47 -81 34z"/>
<path d="M2052 1805 c-50 -63 -31 -241 28 -260 68 -21 113 107 80 227 -17 60
-73 78 -108 33z"/>
<path d="M1681 1264 c-18 -23 -21 -41 -21 -130 0 -99 1 -104 25 -120 32 -21
69 -12 92 23 26 39 25 188 0 226 -24 36 -68 37 -96 1z"/>
</g>
</svg>
